<svg id="Layer_1" data-name="Layer 1" xmlns="http://www.w3.org/2000/svg" viewBox="0 0 432.07 144.07"><defs><style>.cls-1{fill:#0a2a66;}.cls-2{fill:#fff;}.cls-3{fill:#37c5fd;}.cls-4{fill:#10a7e3;}.cls-5{fill:#65d0fa;}.cls-6{fill:#e6ecef;}.cls-7{fill:#789ba8;}.cls-8{font-size:5px;}.cls-14,.cls-15,.cls-8{font-family:Monaco, Monaco;}.cls-9{fill:none;}.cls-10{fill:#333;}.cls-11{fill:#ccfbf0;}.cls-12{fill:#14bf96;}.cls-13{fill:#e0e0e0;}.cls-14{font-size:7.5px;}.cls-15{font-size:8px;}</style></defs><title>HTTP resolve domain</title><rect class="cls-1" width="138.02" height="134.6" rx="2.68" ry="2.68"/><rect class="cls-2" x="5.93" y="5.78" width="126.16" height="75.71"/><path class="cls-3" d="M0,81.5H138a0,0,0,0,1,0,0v58.73a3.84,3.84,0,0,1-3.84,3.84H3.84A3.84,3.84,0,0,1,0,140.23V81.5A0,0,0,0,1,0,81.5Z"/><rect class="cls-4" x="5.93" y="88.33" width="9.17" height="8.94" rx="1.06" ry="1.06"/><rect class="cls-4" x="17.63" y="88.33" width="9.17" height="8.94" rx="1.06" ry="1.06"/><rect class="cls-4" x="29.33" y="88.33" width="9.17" height="8.94" rx="1.06" ry="1.06"/><rect class="cls-4" x="41.03" y="88.33" width="9.17" height="8.94" rx="1.06" ry="1.06"/><rect class="cls-4" x="52.73" y="88.33" width="9.17" height="8.94" rx="1.06" ry="1.06"/><rect class="cls-4" x="64.43" y="88.33" width="9.17" height="8.94" rx="1.06" ry="1.06"/><rect class="cls-4" x="76.13" y="88.33" width="9.17" height="8.94" rx="1.06" ry="1.06"/><rect class="cls-4" x="87.83" y="88.33" width="9.17" height="8.94" rx="1.06" ry="1.06"/><rect class="cls-4" x="99.53" y="88.33" width="9.17" height="8.94" rx="1.06" ry="1.06"/><rect class="cls-4" x="111.23" y="88.33" width="9.17" height="8.94" rx="1.06" ry="1.06"/><rect class="cls-4" x="122.92" y="88.33" width="9.17" height="8.94" rx="1.06" ry="1.06"/><rect class="cls-4" x="17.63" y="100.43" width="9.17" height="8.94" rx="1.06" ry="1.06"/><rect class="cls-4" x="29.33" y="100.43" width="9.17" height="8.94" rx="1.06" ry="1.06"/><rect class="cls-4" x="41.03" y="100.43" width="9.17" height="8.94" rx="1.06" ry="1.06"/><rect class="cls-4" x="52.73" y="100.43" width="9.17" height="8.94" rx="1.06" ry="1.06"/><rect class="cls-4" x="64.43" y="100.43" width="9.17" height="8.94" rx="1.06" ry="1.06"/><rect class="cls-4" x="76.13" y="100.43" width="9.17" height="8.94" rx="1.06" ry="1.06"/><rect class="cls-4" x="87.83" y="100.43" width="9.17" height="8.94" rx="1.06" ry="1.06"/><rect class="cls-4" x="99.53" y="100.43" width="9.17" height="8.94" rx="1.06" ry="1.06"/><rect class="cls-4" x="111.23" y="100.43" width="9.17" height="8.94" rx="1.06" ry="1.06"/><rect class="cls-4" x="5.93" y="112.52" width="9.17" height="8.94" rx="1.06" ry="1.06"/><rect class="cls-4" x="17.63" y="112.52" width="9.17" height="8.94" rx="1.06" ry="1.06"/><rect class="cls-4" x="29.33" y="112.52" width="9.17" height="8.94" rx="1.06" ry="1.06"/><rect class="cls-4" x="41.03" y="112.52" width="9.17" height="8.94" rx="1.06" ry="1.06"/><rect class="cls-4" x="52.73" y="112.52" width="9.17" height="8.94" rx="1.06" ry="1.06"/><rect class="cls-4" x="64.43" y="112.52" width="9.17" height="8.94" rx="1.06" ry="1.06"/><rect class="cls-4" x="76.13" y="112.52" width="9.17" height="8.94" rx="1.06" ry="1.06"/><rect class="cls-4" x="87.83" y="112.52" width="9.17" height="8.94" rx="1.06" ry="1.06"/><rect class="cls-4" x="99.53" y="112.52" width="9.17" height="8.94" rx="1.06" ry="1.06"/><rect class="cls-4" x="111.23" y="112.52" width="9.17" height="8.94" rx="1.06" ry="1.06"/><rect class="cls-4" x="122.92" y="112.52" width="9.17" height="8.94" rx="1.06" ry="1.06"/><rect class="cls-4" x="43.13" y="112.52" width="51.76" height="8.94" rx="1.06" ry="1.06"/><rect class="cls-5" x="50.68" y="125.14" width="34.51" height="14.2" rx="2.19" ry="2.19"/><rect class="cls-6" x="9.65" y="16" width="118.57" height="60.68" rx="2.17" ry="2.17"/><path class="cls-7" d="M9.65,20.05V13.94a5.48,5.48,0,0,1,5.56-5.4H122.58a5.48,5.48,0,0,1,5.56,5.4v6.11"/><rect class="cls-2" x="21.86" y="10.57" width="102.2" height="8.46" rx="1.97" ry="1.97"/><text class="cls-8" transform="translate(23.12 16.77)">http://www.example.com/index.html</text><rect class="cls-2" x="12.01" y="21.98" width="113.61" height="52.56" rx="2.14" ry="2.14"/><path class="cls-9" d="M11.13,10.57H20.6V20H11.13Z"/><path class="cls-10" d="M18.09,12.57A3.16,3.16,0,1,0,19,15.33h-.8a2.37,2.37,0,1,1-2.31-2.89,2.34,2.34,0,0,1,1.67.7l-1.14,1.14H19V11.65Z"/><rect class="cls-3" x="337.39" y="17.53" width="87.59" height="97.02" rx="2.06" ry="2.06"/><rect class="cls-1" x="342.11" y="38.42" width="77.48" height="6.74"/><rect class="cls-1" x="342.11" y="52.73" width="77.48" height="6.74"/><rect class="cls-1" x="342.78" y="67.05" width="77.48" height="6.74"/><rect class="cls-1" x="342.78" y="81.37" width="77.48" height="6.74"/><rect class="cls-1" x="342.78" y="95.68" width="77.48" height="6.74"/><circle class="cls-11" cx="414.2" cy="26.96" r="4.04"/><rect class="cls-12" x="155.82" y="46.21" width="160.01" height="4.62"/><polygon class="cls-12" points="330.22 48.67 313.35 40.4 313.35 56.93 330.22 48.67"/><ellipse class="cls-13" cx="236.82" cy="48.84" rx="50.74" ry="17.05"/><text class="cls-14" transform="translate(193.85 51.25)">www.example.com = ?</text><rect class="cls-12" x="168.93" y="93.57" width="160.01" height="4.62" transform="translate(497.88 191.76) rotate(180)"/><polygon class="cls-12" points="154.54 95.73 171.41 104 171.41 87.47 154.54 95.73"/><ellipse class="cls-13" cx="237.21" cy="95.78" rx="45.73" ry="14.2"/><text class="cls-15" transform="translate(206.76 98.11)">93.184.216.34</text><path d="M357.93,124.54a4.35,4.35,0,0,1-.28,1.61,3.57,3.57,0,0,1-2.06,2.06,4.18,4.18,0,0,1-1.62.29h-3v-7.92h3a4.37,4.37,0,0,1,1.62.29,3.55,3.55,0,0,1,1.25.81,3.65,3.65,0,0,1,.81,1.25A4.43,4.43,0,0,1,357.93,124.54Zm-1.31,0a3.59,3.59,0,0,0-.19-1.22,2.57,2.57,0,0,0-.52-.92,2.38,2.38,0,0,0-.84-.58,2.92,2.92,0,0,0-1.1-.2h-1.7v5.84H354a2.73,2.73,0,0,0,1.1-.2,2.24,2.24,0,0,0,.84-.57,2.66,2.66,0,0,0,.52-.92A3.61,3.61,0,0,0,356.62,124.54Z"/><path d="M365.9,120.58v7.92h-.65a.67.67,0,0,1-.26-.05.5.5,0,0,1-.19-.17l-4.36-5.59c0,.11,0,.21,0,.32s0,.2,0,.28v5.21h-1.13v-7.92h.81l.1,0,.1.07a.53.53,0,0,1,.09.11l4.36,5.59,0-.34c0-.11,0-.21,0-.3v-5.17Z"/><path d="M371.93,121.94a.44.44,0,0,1-.13.14.28.28,0,0,1-.16,0,.45.45,0,0,1-.24-.09c-.08-.06-.19-.12-.32-.2a2.63,2.63,0,0,0-.44-.19,1.93,1.93,0,0,0-.62-.09,1.73,1.73,0,0,0-.58.08,1.06,1.06,0,0,0-.42.23,1,1,0,0,0-.26.35,1.23,1.23,0,0,0-.08.44.75.75,0,0,0,.16.5,1.21,1.21,0,0,0,.42.34,2.78,2.78,0,0,0,.6.25l.68.23a6.65,6.65,0,0,1,.69.28,2.16,2.16,0,0,1,.59.39,1.6,1.6,0,0,1,.42.57,1.92,1.92,0,0,1,.16.83,2.64,2.64,0,0,1-.18,1,2.45,2.45,0,0,1-.52.81,2.47,2.47,0,0,1-.85.54,3.19,3.19,0,0,1-1.15.2,3.64,3.64,0,0,1-.74-.07,3.59,3.59,0,0,1-.68-.21,3.34,3.34,0,0,1-.62-.33,3.05,3.05,0,0,1-.51-.43l.37-.62a.49.49,0,0,1,.13-.12.33.33,0,0,1,.17,0,.48.48,0,0,1,.28.12l.37.26a3.27,3.27,0,0,0,.53.26,2.24,2.24,0,0,0,.73.11,1.58,1.58,0,0,0,1.09-.34,1.21,1.21,0,0,0,.38-.94,1,1,0,0,0-.16-.55,1.45,1.45,0,0,0-.42-.35,2.69,2.69,0,0,0-.6-.24l-.68-.21c-.23-.08-.46-.17-.68-.27a1.87,1.87,0,0,1-1-1,2.16,2.16,0,0,1-.16-.9,2.2,2.2,0,0,1,.17-.83,2,2,0,0,1,.49-.71,2.43,2.43,0,0,1,.79-.5,3.06,3.06,0,0,1,1.08-.19,3.61,3.61,0,0,1,1.25.22,2.8,2.8,0,0,1,1,.61Z"/><path d="M377.42,123.93a2.67,2.67,0,0,1,.64-.84,1.4,1.4,0,0,1,.9-.3,1.27,1.27,0,0,1,.34,0,1.18,1.18,0,0,1,.28.12l-.08.89a.18.18,0,0,1-.07.13.16.16,0,0,1-.12,0l-.24,0a1.66,1.66,0,0,0-.32,0,1.08,1.08,0,0,0-.78.28,1.49,1.49,0,0,0-.27.33c-.07.14-.14.29-.21.46v3.48h-1.18v-5.61H377a.38.38,0,0,1,.26.07.45.45,0,0,1,.1.24Z"/><path d="M381,125.79a3.16,3.16,0,0,0,.15.83,1.93,1.93,0,0,0,.34.58,1.27,1.27,0,0,0,.51.34,1.67,1.67,0,0,0,.65.12,2.13,2.13,0,0,0,.6-.08,4,4,0,0,0,.44-.18,2.28,2.28,0,0,0,.32-.18.52.52,0,0,1,.24-.08.25.25,0,0,1,.22.11l.34.44a2.41,2.41,0,0,1-.48.42,2.63,2.63,0,0,1-.56.27,2.49,2.49,0,0,1-.61.16,4.26,4.26,0,0,1-.61,0,2.92,2.92,0,0,1-1.08-.19,2.3,2.3,0,0,1-.86-.58,2.52,2.52,0,0,1-.57-.94,3.63,3.63,0,0,1-.21-1.29,3.24,3.24,0,0,1,.18-1.09,2.79,2.79,0,0,1,.53-.88,2.55,2.55,0,0,1,.84-.59,2.82,2.82,0,0,1,1.11-.22,2.69,2.69,0,0,1,1,.17,2.16,2.16,0,0,1,.76.49,2.41,2.41,0,0,1,.5.8,3,3,0,0,1,.18,1.07.77.77,0,0,1-.06.37.27.27,0,0,1-.23.09Zm2.82-.73a2,2,0,0,0-.08-.55,1.26,1.26,0,0,0-.25-.44,1.12,1.12,0,0,0-.41-.3,1.45,1.45,0,0,0-.57-.11,1.37,1.37,0,0,0-1,.37,1.79,1.79,0,0,0-.46,1Z"/><path d="M389.36,123.91a.25.25,0,0,1-.09.11.32.32,0,0,1-.14,0,.48.48,0,0,1-.21-.06l-.25-.12a2.34,2.34,0,0,0-.35-.13,1.68,1.68,0,0,0-.47-.06,1.62,1.62,0,0,0-.4,0,1.05,1.05,0,0,0-.3.15.56.56,0,0,0-.19.22.55.55,0,0,0-.07.28.48.48,0,0,0,.12.33,1,1,0,0,0,.32.23,2.35,2.35,0,0,0,.45.17l.52.17.51.2a2,2,0,0,1,.46.29,1.23,1.23,0,0,1,.31.4,1.18,1.18,0,0,1,.13.58,1.73,1.73,0,0,1-.15.73,1.53,1.53,0,0,1-.42.59,1.94,1.94,0,0,1-.68.38,3,3,0,0,1-.94.14,3.43,3.43,0,0,1-.56-.05,2.85,2.85,0,0,1-.52-.15,3.82,3.82,0,0,1-.46-.21,2.75,2.75,0,0,1-.37-.28l.27-.45a.53.53,0,0,1,.13-.13.34.34,0,0,1,.18,0,.41.41,0,0,1,.23.07l.26.16a2.16,2.16,0,0,0,.37.16,1.6,1.6,0,0,0,.53.08,1.56,1.56,0,0,0,.46-.06,1,1,0,0,0,.32-.18.79.79,0,0,0,.19-.25.73.73,0,0,0,.06-.3.48.48,0,0,0-.13-.35,1,1,0,0,0-.32-.24,3.28,3.28,0,0,0-.45-.17l-.52-.17a4.65,4.65,0,0,1-.52-.2,1.83,1.83,0,0,1-.46-.3,1.27,1.27,0,0,1-.32-.43,1.46,1.46,0,0,1-.12-.62,1.53,1.53,0,0,1,.13-.64,1.58,1.58,0,0,1,.4-.54,2,2,0,0,1,.64-.36,2.66,2.66,0,0,1,.88-.14,2.59,2.59,0,0,1,1,.19,2.21,2.21,0,0,1,.78.49Z"/><path d="M393.24,122.8a2.92,2.92,0,0,1,1.13.21,2.3,2.3,0,0,1,.85.58,2.48,2.48,0,0,1,.55.9,3.51,3.51,0,0,1,.19,1.2,3.47,3.47,0,0,1-.19,1.2,2.52,2.52,0,0,1-.55.91,2.3,2.3,0,0,1-.85.58,3.29,3.29,0,0,1-2.26,0,2.42,2.42,0,0,1-.86-.58,2.52,2.52,0,0,1-.55-.91,3.47,3.47,0,0,1-.19-1.2,3.51,3.51,0,0,1,.19-1.2,2.48,2.48,0,0,1,.55-.9,2.42,2.42,0,0,1,.86-.58A2.92,2.92,0,0,1,393.24,122.8Zm0,4.86a1.3,1.3,0,0,0,1.13-.51,2.41,2.41,0,0,0,.37-1.45,2.44,2.44,0,0,0-.37-1.46,1.29,1.29,0,0,0-1.13-.52,1.3,1.3,0,0,0-1.14.52,2.44,2.44,0,0,0-.38,1.46,2.41,2.41,0,0,0,.38,1.45A1.32,1.32,0,0,0,393.24,127.66Z"/><path d="M398.3,120.36v8.14h-1.18v-8.14Z"/><path d="M404.7,122.89l-2.25,5.61h-1.07l-2.25-5.61h1a.42.42,0,0,1,.23.07.36.36,0,0,1,.12.16l1.24,3.27c.05.15.1.31.14.46s.07.3.1.45c0-.15.07-.3.11-.45s.09-.3.14-.46l1.26-3.27a.4.4,0,0,1,.13-.16.28.28,0,0,1,.21-.07Z"/><path d="M406.2,125.79a3.16,3.16,0,0,0,.15.83,1.93,1.93,0,0,0,.34.58,1.27,1.27,0,0,0,.51.34,1.69,1.69,0,0,0,.66.12,2,2,0,0,0,.59-.08,4,4,0,0,0,.44-.18,1.82,1.82,0,0,0,.32-.18.52.52,0,0,1,.25-.08.28.28,0,0,1,.22.11l.33.44a2.67,2.67,0,0,1-.47.42,2.89,2.89,0,0,1-.56.27,2.61,2.61,0,0,1-.61.16,4.35,4.35,0,0,1-.61,0,2.92,2.92,0,0,1-1.08-.19,2.33,2.33,0,0,1-.87-.58,2.66,2.66,0,0,1-.57-.94,3.63,3.63,0,0,1-.21-1.29,3.24,3.24,0,0,1,.19-1.09,2.62,2.62,0,0,1,.53-.88,2.5,2.5,0,0,1,.83-.59,2.83,2.83,0,0,1,1.12-.22,2.67,2.67,0,0,1,.95.17,2.08,2.08,0,0,1,.76.49,2.41,2.41,0,0,1,.5.8,3,3,0,0,1,.18,1.07.77.77,0,0,1-.06.37.25.25,0,0,1-.22.09Zm2.83-.73a1.67,1.67,0,0,0-.09-.55,1.26,1.26,0,0,0-.25-.44,1.12,1.12,0,0,0-.41-.3,1.4,1.4,0,0,0-.56-.11,1.34,1.34,0,0,0-1,.37,1.74,1.74,0,0,0-.47,1Z"/><path d="M412.3,123.93a2.67,2.67,0,0,1,.64-.84,1.4,1.4,0,0,1,.9-.3,1.2,1.2,0,0,1,.63.16l-.09.89a.18.18,0,0,1-.06.13.2.2,0,0,1-.13,0l-.24,0a1.66,1.66,0,0,0-.32,0,1.08,1.08,0,0,0-.78.28,1.49,1.49,0,0,0-.27.33c-.07.14-.14.29-.21.46v3.48h-1.18v-5.61h.69a.37.37,0,0,1,.25.07.45.45,0,0,1,.1.24Z"/></svg>