<svg id="Layer_1" data-name="Layer 1" xmlns="http://www.w3.org/2000/svg" viewBox="0 0 432.07 144.07"><defs><style>.cls-1{fill:#0a2a66;}.cls-14,.cls-2{fill:#fff;}.cls-3{fill:#37c5fd;}.cls-4{fill:#10a7e3;}.cls-5{fill:#65d0fa;}.cls-6{fill:#e6ecef;}.cls-7{fill:#789ba8;}.cls-8{font-size:5px;}.cls-14,.cls-15,.cls-8{font-family:Monaco, Monaco;}.cls-9{fill:none;}.cls-10{fill:#333;}.cls-11{fill:#ccfbf0;}.cls-12,.cls-13{fill:#14bf96;}.cls-13{stroke:#00e5ae;stroke-miterlimit:10;}.cls-14{font-size:6.53px;}.cls-15{font-size:8px;}</style></defs><title>HTTP send request</title><rect class="cls-1" width="138.02" height="134.6" rx="2.68" ry="2.68"/><rect class="cls-2" x="5.93" y="5.78" width="126.16" height="75.71"/><path class="cls-3" d="M0,81.5H138a0,0,0,0,1,0,0v58.73a3.84,3.84,0,0,1-3.84,3.84H3.84A3.84,3.84,0,0,1,0,140.23V81.5A0,0,0,0,1,0,81.5Z"/><rect class="cls-4" x="5.93" y="88.33" width="9.17" height="8.94" rx="1.06" ry="1.06"/><rect class="cls-4" x="17.63" y="88.33" width="9.17" height="8.94" rx="1.06" ry="1.06"/><rect class="cls-4" x="29.33" y="88.33" width="9.17" height="8.94" rx="1.06" ry="1.06"/><rect class="cls-4" x="41.03" y="88.33" width="9.17" height="8.94" rx="1.06" ry="1.06"/><rect class="cls-4" x="52.73" y="88.33" width="9.17" height="8.94" rx="1.06" ry="1.06"/><rect class="cls-4" x="64.43" y="88.33" width="9.17" height="8.94" rx="1.06" ry="1.06"/><rect class="cls-4" x="76.13" y="88.33" width="9.17" height="8.94" rx="1.06" ry="1.06"/><rect class="cls-4" x="87.83" y="88.33" width="9.17" height="8.94" rx="1.06" ry="1.06"/><rect class="cls-4" x="99.53" y="88.33" width="9.17" height="8.94" rx="1.06" ry="1.06"/><rect class="cls-4" x="111.23" y="88.33" width="9.17" height="8.94" rx="1.06" ry="1.06"/><rect class="cls-4" x="122.92" y="88.33" width="9.17" height="8.94" rx="1.06" ry="1.06"/><rect class="cls-4" x="17.63" y="100.43" width="9.17" height="8.94" rx="1.06" ry="1.06"/><rect class="cls-4" x="29.33" y="100.43" width="9.17" height="8.94" rx="1.06" ry="1.06"/><rect class="cls-4" x="41.03" y="100.43" width="9.17" height="8.94" rx="1.06" ry="1.06"/><rect class="cls-4" x="52.73" y="100.43" width="9.17" height="8.94" rx="1.06" ry="1.06"/><rect class="cls-4" x="64.43" y="100.43" width="9.17" height="8.94" rx="1.06" ry="1.06"/><rect class="cls-4" x="76.13" y="100.43" width="9.17" height="8.94" rx="1.06" ry="1.06"/><rect class="cls-4" x="87.83" y="100.43" width="9.17" height="8.94" rx="1.06" ry="1.06"/><rect class="cls-4" x="99.53" y="100.43" width="9.17" height="8.94" rx="1.06" ry="1.06"/><rect class="cls-4" x="111.23" y="100.43" width="9.17" height="8.94" rx="1.06" ry="1.06"/><rect class="cls-4" x="5.93" y="112.52" width="9.17" height="8.94" rx="1.06" ry="1.06"/><rect class="cls-4" x="17.63" y="112.52" width="9.17" height="8.94" rx="1.06" ry="1.06"/><rect class="cls-4" x="29.33" y="112.52" width="9.17" height="8.94" rx="1.06" ry="1.06"/><rect class="cls-4" x="41.03" y="112.52" width="9.17" height="8.94" rx="1.06" ry="1.06"/><rect class="cls-4" x="52.73" y="112.52" width="9.17" height="8.94" rx="1.06" ry="1.06"/><rect class="cls-4" x="64.43" y="112.52" width="9.17" height="8.94" rx="1.06" ry="1.06"/><rect class="cls-4" x="76.13" y="112.52" width="9.17" height="8.94" rx="1.06" ry="1.06"/><rect class="cls-4" x="87.83" y="112.52" width="9.17" height="8.94" rx="1.06" ry="1.06"/><rect class="cls-4" x="99.53" y="112.52" width="9.17" height="8.94" rx="1.06" ry="1.06"/><rect class="cls-4" x="111.23" y="112.52" width="9.17" height="8.94" rx="1.06" ry="1.06"/><rect class="cls-4" x="122.92" y="112.52" width="9.17" height="8.94" rx="1.06" ry="1.06"/><rect class="cls-4" x="43.13" y="112.52" width="51.76" height="8.94" rx="1.06" ry="1.06"/><rect class="cls-5" x="50.68" y="125.14" width="34.51" height="14.2" rx="2.19" ry="2.19"/><rect class="cls-6" x="9.65" y="16" width="118.57" height="60.68" rx="2.17" ry="2.17"/><path class="cls-7" d="M9.65,20.05V13.94a5.48,5.48,0,0,1,5.56-5.4H122.58a5.48,5.48,0,0,1,5.56,5.4v6.11"/><rect class="cls-2" x="21.86" y="10.57" width="102.2" height="8.46" rx="1.97" ry="1.97"/><text class="cls-8" transform="translate(23.12 16.77)">http://www.example.com/index.html</text><rect class="cls-2" x="12.01" y="21.98" width="113.61" height="52.56" rx="2.14" ry="2.14"/><path class="cls-9" d="M11.13,10.57H20.6V20H11.13Z"/><path class="cls-10" d="M18.09,12.57A3.16,3.16,0,1,0,19,15.33h-.8a2.37,2.37,0,1,1-2.31-2.89,2.34,2.34,0,0,1,1.67.7l-1.14,1.14H19V11.65Z"/><rect class="cls-3" x="337.39" y="12.53" width="87.59" height="111.08" rx="2.06" ry="2.06"/><rect class="cls-1" x="342.11" y="33.42" width="77.48" height="6.74"/><rect class="cls-1" x="342.11" y="47.73" width="77.48" height="6.74"/><rect class="cls-1" x="342.78" y="62.05" width="77.48" height="6.74"/><rect class="cls-1" x="342.78" y="76.37" width="77.48" height="6.74"/><rect class="cls-1" x="342.78" y="90.68" width="77.48" height="6.74"/><circle class="cls-11" cx="414.2" cy="21.96" r="4.04"/><rect class="cls-1" x="342.78" y="105" width="77.48" height="6.74"/><path d="M349.13,131l-1.47,4.59h-.77c-.09,0-.15-.06-.19-.17l-.91-2.86c0-.08-.05-.16-.07-.24s0-.16-.05-.24a4.21,4.21,0,0,1-.12.48l-.93,2.86a.2.2,0,0,1-.21.17h-.73L342.21,131H343a.29.29,0,0,1,.19.06.31.31,0,0,1,.1.13l.76,2.67c0,.13.06.25.08.36l.06.35.09-.35c0-.11.07-.23.11-.36l.86-2.68a.22.22,0,0,1,.09-.14.31.31,0,0,1,.17-.05h.42a.35.35,0,0,1,.18.05.26.26,0,0,1,.09.14l.84,2.68c0,.13.07.25.1.36l.09.36c0-.12,0-.23.07-.35s.05-.24.08-.37l.78-2.67a.26.26,0,0,1,.1-.13.25.25,0,0,1,.17-.06Z"/><path d="M356.28,131l-1.47,4.59H354c-.09,0-.15-.06-.19-.17l-.91-2.86c0-.08-.05-.16-.07-.24s0-.16-.05-.24a4.21,4.21,0,0,1-.12.48l-.93,2.86a.2.2,0,0,1-.21.17h-.73L349.36,131h.76a.29.29,0,0,1,.19.06.31.31,0,0,1,.1.13l.76,2.67c0,.13.06.25.08.36l.06.35.09-.35c0-.11.07-.23.11-.36l.86-2.68a.22.22,0,0,1,.09-.14.31.31,0,0,1,.17-.05h.42a.35.35,0,0,1,.18.05.22.22,0,0,1,.09.14l.84,2.68c0,.13.07.25.1.36l.09.36c0-.12,0-.23.07-.35s.05-.24.08-.37l.78-2.67a.26.26,0,0,1,.1-.13.25.25,0,0,1,.17-.06Z"/><path d="M363.43,131,362,135.61h-.77c-.09,0-.15-.06-.19-.17l-.91-2.86c0-.08,0-.16-.07-.24s0-.16,0-.24a4.21,4.21,0,0,1-.12.48l-.93,2.86a.2.2,0,0,1-.21.17H358L356.51,131h.76a.29.29,0,0,1,.19.06.31.31,0,0,1,.1.13l.76,2.67c0,.13.06.25.08.36l.06.35c0-.12.06-.23.1-.35s.06-.23.1-.36l.86-2.68a.22.22,0,0,1,.09-.14.31.31,0,0,1,.17-.05h.42a.35.35,0,0,1,.18.05.22.22,0,0,1,.09.14l.84,2.68c0,.13.07.25.1.36l.09.36c0-.12,0-.23.07-.35s.05-.24.08-.37l.78-2.67a.26.26,0,0,1,.1-.13.27.27,0,0,1,.17-.06Z"/><path d="M363.79,135.05a.66.66,0,0,1,.18-.44.72.72,0,0,1,.2-.14.69.69,0,0,1,.24-.05.7.7,0,0,1,.25.05.72.72,0,0,1,.2.14.53.53,0,0,1,.13.2.52.52,0,0,1,.05.24.51.51,0,0,1-.05.25.57.57,0,0,1-.33.33.7.7,0,0,1-.25.05.69.69,0,0,1-.24-.05.53.53,0,0,1-.2-.13.69.69,0,0,1-.13-.2A.66.66,0,0,1,363.79,135.05Z"/><path d="M366.77,133.39a2.24,2.24,0,0,0,.12.68,1.6,1.6,0,0,0,.28.48,1.15,1.15,0,0,0,.41.28,1.57,1.57,0,0,0,.54.09,1.41,1.41,0,0,0,.49-.07,2.08,2.08,0,0,0,.36-.14l.26-.14a.37.37,0,0,1,.2-.07.2.2,0,0,1,.18.09l.28.36a2.07,2.07,0,0,1-.39.34,2.47,2.47,0,0,1-.46.23,2.8,2.8,0,0,1-.5.12,2.89,2.89,0,0,1-.5,0,2.3,2.3,0,0,1-.88-.16,2,2,0,0,1-.71-.47,2.27,2.27,0,0,1-.47-.77,3.14,3.14,0,0,1-.17-1.06,2.6,2.6,0,0,1,.15-.89,2.4,2.4,0,0,1,.44-.72,2,2,0,0,1,.68-.48A2.21,2.21,0,0,1,368,131a2.3,2.3,0,0,1,.79.14,1.7,1.7,0,0,1,.62.4,1.78,1.78,0,0,1,.4.65,2.42,2.42,0,0,1,.15.88.64.64,0,0,1-.05.3c0,.05-.09.07-.18.07Zm2.31-.59a1.33,1.33,0,0,0-.07-.45,1.2,1.2,0,0,0-.2-.37,1,1,0,0,0-.34-.24,1.11,1.11,0,0,0-.46-.09,1.13,1.13,0,0,0-.83.3,1.46,1.46,0,0,0-.38.85Z"/><path d="M374.73,135.61h-.93a.28.28,0,0,1-.18-.06.41.41,0,0,1-.1-.13l-1.06-1.69a.89.89,0,0,1-.11.26l-1,1.43a.69.69,0,0,1-.11.13.21.21,0,0,1-.16.06h-.86l1.59-2.36L370.32,131h.93a.24.24,0,0,1,.16,0,.24.24,0,0,1,.1.1l1,1.62a.81.81,0,0,1,.12-.29l.88-1.31a.26.26,0,0,1,.23-.16h.89l-1.53,2.18Z"/><path d="M375.27,131.66a2.64,2.64,0,0,1,1.85-.72,2,2,0,0,1,.71.12,1.46,1.46,0,0,1,.51.37,1.5,1.5,0,0,1,.32.55,2.09,2.09,0,0,1,.11.72v2.91h-.43a.41.41,0,0,1-.21,0,.32.32,0,0,1-.12-.17l-.1-.38a2.79,2.79,0,0,1-.34.28,1.47,1.47,0,0,1-.36.21,1.63,1.63,0,0,1-.39.13,2.19,2.19,0,0,1-.46,0,1.77,1.77,0,0,1-.52-.07,1.09,1.09,0,0,1-.41-.23,1.21,1.21,0,0,1-.28-.39,1.27,1.27,0,0,1-.1-.54,1.1,1.1,0,0,1,.14-.52,1.36,1.36,0,0,1,.47-.45,3.22,3.22,0,0,1,.86-.33,5.83,5.83,0,0,1,1.31-.15v-.3a1.11,1.11,0,0,0-.21-.74.78.78,0,0,0-.62-.24,1.33,1.33,0,0,0-.47.07,1.66,1.66,0,0,0-.33.15l-.24.15a.48.48,0,0,1-.23.07.25.25,0,0,1-.17-.06.34.34,0,0,1-.12-.12Zm2.56,2a5.17,5.17,0,0,0-.87.08,2.77,2.77,0,0,0-.58.16.73.73,0,0,0-.31.25.47.47,0,0,0-.1.3.78.78,0,0,0,0,.28.57.57,0,0,0,.36.3,1.18,1.18,0,0,0,.27,0,1.49,1.49,0,0,0,.66-.14,2.13,2.13,0,0,0,.52-.41Z"/><path d="M379.9,135.61V131h.59a.24.24,0,0,1,.25.19l.06.4a3.38,3.38,0,0,1,.26-.27,1.87,1.87,0,0,1,.29-.2,1.43,1.43,0,0,1,.34-.14,1.52,1.52,0,0,1,.38-.05,1.35,1.35,0,0,1,.41.06,1.4,1.4,0,0,1,.32.18,1.16,1.16,0,0,1,.25.29,1.8,1.8,0,0,1,.17.37,1.31,1.31,0,0,1,.26-.41,1.54,1.54,0,0,1,.35-.28,2.05,2.05,0,0,1,.41-.16,2.3,2.3,0,0,1,.45-.05,1.76,1.76,0,0,1,.66.12,1.39,1.39,0,0,1,.49.34,1.57,1.57,0,0,1,.3.54,2.45,2.45,0,0,1,.1.74v2.92h-1v-2.92a1.1,1.1,0,0,0-.21-.73.78.78,0,0,0-.62-.24,1,1,0,0,0-.35.06.75.75,0,0,0-.28.18.74.74,0,0,0-.19.31,1.09,1.09,0,0,0-.07.42v2.92h-1v-2.92a1.17,1.17,0,0,0-.2-.74.75.75,0,0,0-.6-.23,1,1,0,0,0-.5.13,1.65,1.65,0,0,0-.42.38v3.38Z"/><path d="M388.3,131.69a2.41,2.41,0,0,1,.65-.55,1.78,1.78,0,0,1,.85-.2,1.6,1.6,0,0,1,.7.15,1.57,1.57,0,0,1,.54.45,2.21,2.21,0,0,1,.35.74,3.44,3.44,0,0,1,.13,1,3.19,3.19,0,0,1-.14.94,2.18,2.18,0,0,1-.39.76,1.73,1.73,0,0,1-.63.51,1.8,1.8,0,0,1-.82.18,1.53,1.53,0,0,1-.68-.13,2,2,0,0,1-.52-.36v1.95h-1V131H388a.23.23,0,0,1,.25.19Zm0,2.77a1.27,1.27,0,0,0,.45.37,1.32,1.32,0,0,0,.53.1,1.08,1.08,0,0,0,.89-.41,2,2,0,0,0,.31-1.23,3.06,3.06,0,0,0-.07-.73,1.34,1.34,0,0,0-.21-.48.84.84,0,0,0-.32-.28,1,1,0,0,0-.44-.08,1.29,1.29,0,0,0-.64.15,1.94,1.94,0,0,0-.5.46Z"/><path d="M393.44,129v6.66h-1V129Z"/><path d="M395.34,133.39a3.08,3.08,0,0,0,.12.68,1.6,1.6,0,0,0,.28.48,1.15,1.15,0,0,0,.41.28,1.57,1.57,0,0,0,.54.09,1.41,1.41,0,0,0,.49-.07,2.08,2.08,0,0,0,.36-.14l.26-.14a.37.37,0,0,1,.2-.07.2.2,0,0,1,.18.09l.28.36a2.07,2.07,0,0,1-.39.34,2.47,2.47,0,0,1-.46.23,2.8,2.8,0,0,1-.5.12,2.89,2.89,0,0,1-.5,0,2.3,2.3,0,0,1-.88-.16,2,2,0,0,1-.71-.47,2.27,2.27,0,0,1-.47-.77,3.14,3.14,0,0,1-.17-1.06,2.6,2.6,0,0,1,.15-.89,2.4,2.4,0,0,1,.44-.72,2,2,0,0,1,.68-.48,2.21,2.21,0,0,1,.91-.18,2.26,2.26,0,0,1,.79.14,1.7,1.7,0,0,1,.62.4,1.78,1.78,0,0,1,.4.65,2.42,2.42,0,0,1,.15.88.64.64,0,0,1,0,.3c0,.05-.09.07-.18.07Zm2.31-.59a1.33,1.33,0,0,0-.07-.45,1.2,1.2,0,0,0-.2-.37,1,1,0,0,0-.34-.24,1.11,1.11,0,0,0-.46-.09,1.13,1.13,0,0,0-.83.3,1.46,1.46,0,0,0-.38.85Z"/><path d="M399.27,135.05a.69.69,0,0,1,.05-.24.53.53,0,0,1,.13-.2.6.6,0,0,1,.2-.14.6.6,0,0,1,.24-.05.7.7,0,0,1,.25.05.9.9,0,0,1,.2.14.69.69,0,0,1,.13.2.52.52,0,0,1,0,.24.51.51,0,0,1,0,.25.69.69,0,0,1-.13.2.63.63,0,0,1-.2.13.7.7,0,0,1-.25.05.6.6,0,0,1-.24-.05.46.46,0,0,1-.2-.13.53.53,0,0,1-.13-.2A.66.66,0,0,1,399.27,135.05Z"/><path d="M404.79,131.92l-.08.09a.21.21,0,0,1-.12,0,.27.27,0,0,1-.16,0l-.2-.12-.27-.12a1.58,1.58,0,0,0-.41-.05,1.2,1.2,0,0,0-.55.11,1,1,0,0,0-.4.32,1.72,1.72,0,0,0-.24.51,2.76,2.76,0,0,0-.07.67,2.84,2.84,0,0,0,.08.69,1.52,1.52,0,0,0,.25.51,1,1,0,0,0,.38.31,1.09,1.09,0,0,0,.51.11,1.47,1.47,0,0,0,.46-.06,1.92,1.92,0,0,0,.29-.15l.2-.15a.27.27,0,0,1,.18-.07.2.2,0,0,1,.18.09l.27.36a1.92,1.92,0,0,1-.36.34,2.55,2.55,0,0,1-.43.23,2.49,2.49,0,0,1-.47.12,2.7,2.7,0,0,1-.49,0,1.94,1.94,0,0,1-.8-.16,2,2,0,0,1-.65-.46,2.2,2.2,0,0,1-.43-.75,2.8,2.8,0,0,1-.16-1,2.85,2.85,0,0,1,.14-.94,2.28,2.28,0,0,1,.42-.75,1.93,1.93,0,0,1,.69-.49,2.32,2.32,0,0,1,.94-.18,2.19,2.19,0,0,1,.88.16,2.1,2.1,0,0,1,.68.46Z"/><path d="M407.77,131a2.43,2.43,0,0,1,.92.17,2,2,0,0,1,1.15,1.21,2.76,2.76,0,0,1,.16,1,2.72,2.72,0,0,1-.16,1,2,2,0,0,1-.45.75,1.92,1.92,0,0,1-.7.47,2.57,2.57,0,0,1-1.84,0,2,2,0,0,1-.71-.47,2.34,2.34,0,0,1-.45-.75,3,3,0,0,1-.16-1,3,3,0,0,1,.16-1,2.19,2.19,0,0,1,.45-.74,2,2,0,0,1,.71-.47A2.43,2.43,0,0,1,407.77,131Zm0,4a1.07,1.07,0,0,0,.93-.41,2.53,2.53,0,0,0,0-2.39,1.08,1.08,0,0,0-.93-.42,1.1,1.1,0,0,0-.94.42,2.53,2.53,0,0,0,0,2.39A1.09,1.09,0,0,0,407.77,134.92Z"/><path d="M410.93,135.61V131h.58a.23.23,0,0,1,.25.19l.07.4a2.23,2.23,0,0,1,.26-.27,1.49,1.49,0,0,1,.29-.2,1.22,1.22,0,0,1,.33-.14,1.6,1.6,0,0,1,.39-.05,1.29,1.29,0,0,1,.4.06,1.74,1.74,0,0,1,.33.18,1.37,1.37,0,0,1,.24.29,1.4,1.4,0,0,1,.17.37,1.51,1.51,0,0,1,.26-.41,1.79,1.79,0,0,1,.35-.28,1.92,1.92,0,0,1,.42-.16,2.12,2.12,0,0,1,.44-.05,1.69,1.69,0,0,1,.66.12,1.31,1.31,0,0,1,.49.34,1.57,1.57,0,0,1,.3.54,2.45,2.45,0,0,1,.11.74v2.92h-1v-2.92a1.1,1.1,0,0,0-.21-.73.78.78,0,0,0-.62-.24,1,1,0,0,0-.35.06.84.84,0,0,0-.28.18.86.86,0,0,0-.19.31,1.09,1.09,0,0,0-.07.42v2.92h-1v-2.92a1.11,1.11,0,0,0-.2-.74.71.71,0,0,0-.59-.23,1,1,0,0,0-.5.13,1.53,1.53,0,0,0-.43.38v3.38Z"/><rect class="cls-12" x="141.72" y="66.61" width="178.5" height="8.92"/><polygon class="cls-12" points="333.36 71.95 319.19 62.67 319.19 81.24 333.36 71.95"/><rect class="cls-13" x="192.55" y="26.96" width="105.2" height="32.18" rx="4.42" ry="4.42"/><text class="cls-14" transform="translate(197.71 39.12)">GET /index.html HTTP/1.1<tspan x="0" y="10.84">Host: www.example.com</tspan></text><text class="cls-15" transform="translate(343.07 25.18)">93.184.216.34</text></svg>