<svg id="Layer_1" data-name="Layer 1" xmlns="http://www.w3.org/2000/svg" viewBox="0 0 475.08 144.11"><defs><style>.cls-1,.cls-2{fill:#14bf96;}.cls-1{stroke:#00e5ae;}.cls-1,.cls-8{stroke-miterlimit:10;}.cls-3{font-size:9.04px;}.cls-10,.cls-14,.cls-3{fill:#fff;}.cls-10,.cls-14,.cls-3,.cls-7{font-family:Monaco, Monaco;}.cls-4{font-family:Lato-Bold, Lato;font-weight:700;}.cls-5{fill:#ffd633;}.cls-6{fill:#2d2d2d;}.cls-10,.cls-7{font-size:9.13px;}.cls-8{fill:none;stroke:#14bf96;stroke-width:1.9px;}.cls-9{fill:#1a1a1a;}.cls-11{fill:#37c5fd;}.cls-12{fill:#0a2a66;}.cls-13{fill:#ccfbf0;}.cls-14{font-size:12.36px;}</style></defs><title>computers to-from IP</title><rect class="cls-1" x="172.7" y="14.11" width="114.25" height="65.3" rx="4.42" ry="4.42"/><rect class="cls-2" x="135.51" y="69.94" width="189.12" height="12.34"/><text class="cls-3" transform="translate(180.1 53.64)">FROM<tspan class="cls-4" x="21.71" y="0">:</tspan><tspan x="0" y="10.85">216.3.128.12</tspan></text><text class="cls-3" transform="translate(180.1 26.56)">TO:<tspan x="0" y="10.85">24.130.242.17</tspan></text><rect class="cls-5" x="201.69" y="71.08" width="27.9" height="9.13"/><rect class="cls-6" x="229.55" y="71.08" width="28.26" height="9.13"/><text class="cls-7" transform="translate(212.68 96.03)">1</text><rect class="cls-8" x="208.88" y="86.33" width="13.12" height="12.55" rx="0.76" ry="0.76"/><text class="cls-7" transform="translate(268.73 96.03)">1</text><rect class="cls-8" x="264.93" y="86.33" width="13.12" height="12.55" rx="0.76" ry="0.76"/><rect class="cls-5" x="257.6" y="71.08" width="28.35" height="9.13"/><rect class="cls-9" x="236.91" y="86.33" width="13.12" height="12.55" rx="0.76" ry="0.76"/><rect class="cls-8" x="236.91" y="86.33" width="13.12" height="12.55" rx="0.76" ry="0.76"/><text class="cls-10" transform="translate(240.61 95.82)">0</text><polygon class="cls-2" points="338.55 77.34 323.53 64.5 323.53 90.19 338.55 77.34"/><rect class="cls-6" x="173.18" y="71.08" width="28.26" height="9.13"/><rect class="cls-9" x="180.85" y="86.33" width="13.12" height="12.55" rx="0.76" ry="0.76"/><rect class="cls-8" x="180.85" y="86.33" width="13.12" height="12.55" rx="0.76" ry="0.76"/><text class="cls-10" transform="translate(184.56 95.82)">0</text><rect class="cls-11" y="0.11" width="130" height="144" rx="3.05" ry="3.05"/><rect class="cls-12" x="7" y="31.11" width="115" height="10"/><rect class="cls-12" x="7" y="52.36" width="115" height="10"/><rect class="cls-12" x="8" y="73.61" width="115" height="10"/><rect class="cls-12" x="8" y="94.86" width="115" height="10"/><rect class="cls-12" x="8" y="116.11" width="115" height="10"/><circle class="cls-13" cx="114" cy="14.11" r="6"/><text class="cls-14" transform="translate(8.27 19.37)">216.3.128.12</text><rect class="cls-11" x="345.08" width="130" height="144" rx="3.05" ry="3.05"/><rect class="cls-12" x="352.08" y="31" width="115" height="10"/><rect class="cls-12" x="352.08" y="52.25" width="115" height="10"/><rect class="cls-12" x="353.08" y="73.5" width="115" height="10"/><rect class="cls-12" x="353.08" y="94.75" width="115" height="10"/><rect class="cls-12" x="353.08" y="116" width="115" height="10"/><circle class="cls-13" cx="459.08" cy="14" r="6"/><text class="cls-14" transform="translate(353.35 19.26)">24.130.242.17</text></svg>