<svg id="Layer_1" data-name="Layer 1" xmlns="http://www.w3.org/2000/svg" width="427.25" height="343.69" viewBox="0 0 427.25 343.69"><defs><style>.cls-1,.cls-10,.cls-11,.cls-12,.cls-15,.cls-19,.cls-2,.cls-21,.cls-8{fill:none;}.cls-1,.cls-2{stroke:#14bf96;}.cls-1,.cls-10,.cls-11,.cls-12,.cls-2,.cls-8{stroke-linecap:round;}.cls-1,.cls-10,.cls-11,.cls-12,.cls-15,.cls-16,.cls-2,.cls-21,.cls-8,.cls-9{stroke-miterlimit:10;}.cls-1{stroke-width:13.98px;}.cls-2{stroke-width:6.45px;}.cls-3{fill:#0a2a66;}.cls-16,.cls-4{fill:#fff;}.cls-5{fill:#37c5fd;}.cls-6{fill:#10a7e3;}.cls-7{fill:#65d0fa;}.cls-8{stroke:#65d0fa;stroke-width:1.65px;}.cls-9{fill:#1865f2;stroke:#1865f2;stroke-width:1.85px;}.cls-10{stroke:#37c5fd;}.cls-10,.cls-12{stroke-width:3.76px;}.cls-11{stroke:#10a7e3;stroke-width:6.12px;}.cls-12{stroke:#c3eefe;}.cls-13{fill:#ccfbf0;}.cls-14{fill:#14bf96;}.cls-15{stroke:#7c8482;}.cls-15,.cls-16{stroke-width:0.86px;}.cls-16{stroke:#555;}.cls-17{fill:#e6ecef;}.cls-18{fill:#789ba8;}.cls-20{fill:#333;}.cls-21{stroke:#aac0c8;stroke-width:0.4px;}</style></defs><title>LAN</title><line class="cls-1" x1="420.26" y1="175.99" x2="6.99" y2="175.99"/><line class="cls-2" x1="69.51" y1="175.94" x2="69.51" y2="119.91"/><line class="cls-2" x1="354.66" y1="176.05" x2="354.66" y2="120.03"/><rect class="cls-3" x="296.16" y="1.03" width="115.25" height="115.25" rx="2.36"/><rect class="cls-4" x="301.11" y="5.98" width="105.35" height="64.83"/><path class="cls-5" d="M296.16,70.81H411.41a0,0,0,0,1,0,0V121a3.39,3.39,0,0,1-3.39,3.39H299.55a3.39,3.39,0,0,1-3.39-3.39V70.81A0,0,0,0,1,296.16,70.81Z"/><rect class="cls-6" x="301.11" y="76.67" width="7.65" height="7.65" rx="0.94"/><rect class="cls-6" x="310.88" y="76.67" width="7.65" height="7.65" rx="0.94"/><rect class="cls-6" x="320.65" y="76.67" width="7.65" height="7.65" rx="0.94"/><rect class="cls-6" x="330.42" y="76.67" width="7.65" height="7.65" rx="0.94"/><rect class="cls-6" x="340.19" y="76.67" width="7.65" height="7.65" rx="0.94"/><rect class="cls-6" x="349.96" y="76.67" width="7.65" height="7.65" rx="0.94"/><rect class="cls-6" x="359.73" y="76.67" width="7.65" height="7.65" rx="0.94"/><rect class="cls-6" x="369.5" y="76.67" width="7.65" height="7.65" rx="0.94"/><rect class="cls-6" x="379.26" y="76.67" width="7.65" height="7.65" rx="0.94"/><rect class="cls-6" x="389.03" y="76.67" width="7.65" height="7.65" rx="0.94"/><rect class="cls-6" x="398.8" y="76.67" width="7.65" height="7.65" rx="0.94"/><rect class="cls-6" x="310.88" y="87.02" width="7.65" height="7.65" rx="0.94"/><rect class="cls-6" x="320.65" y="87.02" width="7.65" height="7.65" rx="0.94"/><rect class="cls-6" x="330.42" y="87.02" width="7.65" height="7.65" rx="0.94"/><rect class="cls-6" x="340.19" y="87.02" width="7.65" height="7.65" rx="0.94"/><rect class="cls-6" x="349.96" y="87.02" width="7.65" height="7.65" rx="0.94"/><rect class="cls-6" x="359.73" y="87.02" width="7.65" height="7.65" rx="0.94"/><rect class="cls-6" x="369.5" y="87.02" width="7.65" height="7.65" rx="0.94"/><rect class="cls-6" x="379.26" y="87.02" width="7.65" height="7.65" rx="0.94"/><rect class="cls-6" x="389.03" y="87.02" width="7.65" height="7.65" rx="0.94"/><rect class="cls-6" x="301.11" y="97.38" width="7.65" height="7.65" rx="0.94"/><rect class="cls-6" x="310.88" y="97.38" width="7.65" height="7.65" rx="0.94"/><rect class="cls-6" x="320.65" y="97.38" width="7.65" height="7.65" rx="0.94"/><rect class="cls-6" x="330.42" y="97.38" width="7.65" height="7.65" rx="0.94"/><rect class="cls-6" x="340.19" y="97.38" width="7.65" height="7.65" rx="0.94"/><rect class="cls-6" x="349.96" y="97.38" width="7.65" height="7.65" rx="0.94"/><rect class="cls-6" x="359.73" y="97.38" width="7.65" height="7.65" rx="0.94"/><rect class="cls-6" x="369.5" y="97.38" width="7.65" height="7.65" rx="0.94"/><rect class="cls-6" x="379.26" y="97.38" width="7.65" height="7.65" rx="0.94"/><rect class="cls-6" x="389.03" y="97.38" width="7.65" height="7.65" rx="0.94"/><rect class="cls-6" x="398.8" y="97.38" width="7.65" height="7.65" rx="0.94"/><rect class="cls-6" x="332.17" y="97.38" width="43.22" height="7.65" rx="0.94"/><rect class="cls-7" x="338.48" y="108.18" width="28.81" height="12.16" rx="1.94"/><polyline class="cls-8" points="338.37 45.93 358.94 31.12 380.71 36.04 394.64 20.2"/><polygon class="cls-7" points="397.39 24.54 399.33 14.86 389.98 18.02 397.39 24.54"/><circle class="cls-9" cx="359.06" cy="31.34" r="3.4"/><path class="cls-8" d="M338.25,45.7c.12.23-24.18,6.75-24.18,6.75"/><circle class="cls-9" cx="338.25" cy="45.7" r="3.4"/><circle class="cls-9" cx="313.95" cy="52.23" r="3.4"/><circle class="cls-9" cx="380.59" cy="35.81" r="3.4"/><line class="cls-2" x1="210.76" y1="175.63" x2="210.76" y2="119.61"/><rect class="cls-3" x="152.26" y="1.03" width="115.25" height="115.25" rx="2.36"/><rect class="cls-4" x="157.21" y="5.98" width="105.35" height="64.83"/><line class="cls-10" x1="185.87" y1="21.61" x2="199.08" y2="21.61"/><line class="cls-11" x1="177.26" y1="21.61" x2="177.26" y2="21.61"/><line class="cls-10" x1="185.87" y1="35.67" x2="199.08" y2="35.67"/><line class="cls-11" x1="177.26" y1="35.67" x2="177.26" y2="35.67"/><line class="cls-10" x1="185.87" y1="49.73" x2="199.08" y2="49.73"/><line class="cls-11" x1="177.26" y1="49.73" x2="177.26" y2="49.73"/><line class="cls-12" x1="206.99" y1="21.61" x2="244.09" y2="21.61"/><line class="cls-12" x1="206.99" y1="28.64" x2="235.95" y2="28.64"/><line class="cls-12" x1="206.99" y1="42.7" x2="235.95" y2="42.7"/><line class="cls-12" x1="206.99" y1="56.76" x2="235.95" y2="56.76"/><line class="cls-12" x1="206.99" y1="35.67" x2="244.09" y2="35.67"/><line class="cls-12" x1="206.99" y1="49.73" x2="244.09" y2="49.73"/><path class="cls-5" d="M152.26,70.81H267.51a0,0,0,0,1,0,0V121a3.39,3.39,0,0,1-3.39,3.39H155.65a3.39,3.39,0,0,1-3.39-3.39V70.81A0,0,0,0,1,152.26,70.81Z"/><rect class="cls-6" x="157.21" y="76.67" width="7.65" height="7.65" rx="0.94"/><rect class="cls-6" x="166.98" y="76.67" width="7.65" height="7.65" rx="0.94"/><rect class="cls-6" x="176.75" y="76.67" width="7.65" height="7.65" rx="0.94"/><rect class="cls-6" x="186.52" y="76.67" width="7.65" height="7.65" rx="0.94"/><rect class="cls-6" x="196.29" y="76.67" width="7.65" height="7.65" rx="0.94"/><rect class="cls-6" x="206.06" y="76.67" width="7.65" height="7.65" rx="0.94"/><rect class="cls-6" x="215.83" y="76.67" width="7.65" height="7.65" rx="0.94"/><rect class="cls-6" x="225.6" y="76.67" width="7.65" height="7.65" rx="0.94"/><rect class="cls-6" x="235.37" y="76.67" width="7.65" height="7.65" rx="0.94"/><rect class="cls-6" x="245.14" y="76.67" width="7.65" height="7.65" rx="0.94"/><rect class="cls-6" x="254.91" y="76.67" width="7.65" height="7.65" rx="0.94"/><rect class="cls-6" x="166.98" y="87.02" width="7.65" height="7.65" rx="0.94"/><rect class="cls-6" x="176.75" y="87.02" width="7.65" height="7.65" rx="0.94"/><rect class="cls-6" x="186.52" y="87.02" width="7.65" height="7.65" rx="0.94"/><rect class="cls-6" x="196.29" y="87.02" width="7.65" height="7.65" rx="0.94"/><rect class="cls-6" x="206.06" y="87.02" width="7.65" height="7.65" rx="0.94"/><rect class="cls-6" x="215.83" y="87.02" width="7.65" height="7.65" rx="0.94"/><rect class="cls-6" x="225.6" y="87.02" width="7.65" height="7.65" rx="0.94"/><rect class="cls-6" x="235.37" y="87.02" width="7.65" height="7.65" rx="0.94"/><rect class="cls-6" x="245.14" y="87.02" width="7.65" height="7.65" rx="0.94"/><rect class="cls-6" x="157.21" y="97.38" width="7.65" height="7.65" rx="0.94"/><rect class="cls-6" x="166.98" y="97.38" width="7.65" height="7.65" rx="0.94"/><rect class="cls-6" x="176.75" y="97.38" width="7.65" height="7.65" rx="0.94"/><rect class="cls-6" x="186.52" y="97.38" width="7.65" height="7.65" rx="0.94"/><rect class="cls-6" x="196.29" y="97.38" width="7.65" height="7.65" rx="0.94"/><rect class="cls-6" x="206.06" y="97.38" width="7.65" height="7.65" rx="0.94"/><rect class="cls-6" x="215.83" y="97.38" width="7.65" height="7.65" rx="0.94"/><rect class="cls-6" x="225.6" y="97.38" width="7.65" height="7.65" rx="0.94"/><rect class="cls-6" x="235.37" y="97.38" width="7.65" height="7.65" rx="0.94"/><rect class="cls-6" x="245.14" y="97.38" width="7.65" height="7.65" rx="0.94"/><rect class="cls-6" x="254.91" y="97.38" width="7.65" height="7.65" rx="0.94"/><rect class="cls-6" x="188.28" y="97.38" width="43.22" height="7.65" rx="0.94"/><rect class="cls-7" x="194.58" y="108.18" width="28.81" height="12.16" rx="1.94"/><line class="cls-2" x1="130.86" y1="233.99" x2="130.86" y2="177.96"/><line class="cls-2" x1="297.85" y1="236.89" x2="297.85" y2="180.86"/><rect class="cls-5" x="251.87" y="218.84" width="98.44" height="124.85" rx="1.91"/><rect class="cls-3" x="257.17" y="242.32" width="87.08" height="7.57"/><rect class="cls-3" x="257.17" y="258.41" width="87.08" height="7.57"/><rect class="cls-3" x="257.93" y="274.5" width="87.08" height="7.57"/><rect class="cls-3" x="257.93" y="290.59" width="87.08" height="7.57"/><rect class="cls-3" x="257.93" y="306.68" width="87.08" height="7.57"/><circle class="cls-13" cx="338.19" cy="229.44" r="4.54"/><rect class="cls-3" x="257.93" y="322.77" width="87.08" height="7.57"/><rect class="cls-3" x="68.59" y="219.72" width="118.77" height="115.83" rx="2.3"/><rect class="cls-4" x="73.7" y="224.7" width="108.56" height="65.15"/><path class="cls-5" d="M68.59,289.85H187.36a0,0,0,0,1,0,0v50.54a3.3,3.3,0,0,1-3.3,3.3H71.9a3.3,3.3,0,0,1-3.3-3.3V289.85A0,0,0,0,1,68.59,289.85Z"/><rect class="cls-6" x="73.7" y="295.73" width="7.89" height="7.69" rx="0.92"/><rect class="cls-6" x="83.76" y="295.73" width="7.89" height="7.69" rx="0.92"/><rect class="cls-6" x="93.83" y="295.73" width="7.89" height="7.69" rx="0.92"/><rect class="cls-6" x="103.9" y="295.73" width="7.89" height="7.69" rx="0.92"/><rect class="cls-6" x="113.97" y="295.73" width="7.89" height="7.69" rx="0.92"/><rect class="cls-6" x="124.03" y="295.73" width="7.89" height="7.69" rx="0.92"/><rect class="cls-6" x="134.1" y="295.73" width="7.89" height="7.69" rx="0.92"/><rect class="cls-6" x="144.17" y="295.73" width="7.89" height="7.69" rx="0.92"/><rect class="cls-6" x="154.24" y="295.73" width="7.89" height="7.69" rx="0.92"/><rect class="cls-6" x="164.3" y="295.73" width="7.89" height="7.69" rx="0.92"/><rect class="cls-6" x="174.37" y="295.73" width="7.89" height="7.69" rx="0.92"/><rect class="cls-6" x="83.76" y="306.14" width="7.89" height="7.69" rx="0.92"/><rect class="cls-6" x="93.83" y="306.14" width="7.89" height="7.69" rx="0.92"/><rect class="cls-6" x="103.9" y="306.14" width="7.89" height="7.69" rx="0.92"/><rect class="cls-6" x="113.97" y="306.14" width="7.89" height="7.69" rx="0.92"/><rect class="cls-6" x="124.03" y="306.14" width="7.89" height="7.69" rx="0.92"/><rect class="cls-6" x="134.1" y="306.14" width="7.89" height="7.69" rx="0.92"/><rect class="cls-6" x="144.17" y="306.14" width="7.89" height="7.69" rx="0.92"/><rect class="cls-6" x="154.24" y="306.14" width="7.89" height="7.69" rx="0.92"/><rect class="cls-6" x="164.3" y="306.14" width="7.89" height="7.69" rx="0.92"/><rect class="cls-6" x="73.7" y="316.54" width="7.89" height="7.69" rx="0.92"/><rect class="cls-6" x="83.76" y="316.54" width="7.89" height="7.69" rx="0.92"/><rect class="cls-6" x="93.83" y="316.54" width="7.89" height="7.69" rx="0.92"/><rect class="cls-6" x="103.9" y="316.54" width="7.89" height="7.69" rx="0.92"/><rect class="cls-6" x="113.97" y="316.54" width="7.89" height="7.69" rx="0.92"/><rect class="cls-6" x="124.03" y="316.54" width="7.89" height="7.69" rx="0.92"/><rect class="cls-6" x="134.1" y="316.54" width="7.89" height="7.69" rx="0.92"/><rect class="cls-6" x="144.17" y="316.54" width="7.89" height="7.69" rx="0.92"/><rect class="cls-6" x="154.24" y="316.54" width="7.89" height="7.69" rx="0.92"/><rect class="cls-6" x="164.3" y="316.54" width="7.89" height="7.69" rx="0.92"/><rect class="cls-6" x="174.37" y="316.54" width="7.89" height="7.69" rx="0.92"/><rect class="cls-6" x="105.71" y="316.54" width="44.54" height="7.69" rx="0.92"/><rect class="cls-7" x="112.2" y="327.4" width="29.69" height="12.22" rx="1.89"/><path class="cls-14" d="M119,244.42c1.37,6.48-1.5,12.71-6.54,14.88-.19.08,1.81,1.47,1.3,1.88s-2.08,0-2.86,0-1.78,1.45-2,1.5c-.77.17.2-2.61-.56-2.63-5.34-.15-10.28-4.62-11.62-10.95-1.53-7.24,2.22-14.16,8.38-15.47S117.47,237.18,119,244.42Z"/><path class="cls-15" d="M111.19,261.25s-2.22,6.62,3.07,8.32,11.53-.66,10.77,5a16.49,16.49,0,0,1-4.72,9.21"/><path class="cls-16" d="M114.62,248.37a.41.41,0,0,0-.39.54l2.58,7.88a.41.41,0,0,0,.74.08l1.18-2,1.7,1.7a.41.41,0,0,0,.58,0l1.45-1.45a.4.4,0,0,0,0-.57l-1.7-1.7,1.94-1.18a.41.41,0,0,0-.08-.74l-7.88-2.59-.12,0Z"/><rect class="cls-3" x="11.97" width="113.97" height="116.22" rx="2.21"/><rect class="cls-4" x="16.87" y="4.99" width="104.18" height="65.37"/><path class="cls-5" d="M12,70.37h114a0,0,0,0,1,0,0v50.85a3.17,3.17,0,0,1-3.17,3.17H15.14A3.17,3.17,0,0,1,12,121.22V70.37A0,0,0,0,1,12,70.37Z"/><rect class="cls-6" x="16.87" y="76.27" width="7.57" height="7.72" rx="0.88"/><rect class="cls-6" x="26.53" y="76.27" width="7.57" height="7.72" rx="0.88"/><rect class="cls-6" x="36.19" y="76.27" width="7.57" height="7.72" rx="0.88"/><rect class="cls-6" x="45.85" y="76.27" width="7.57" height="7.72" rx="0.88"/><rect class="cls-6" x="55.51" y="76.27" width="7.57" height="7.72" rx="0.88"/><rect class="cls-6" x="65.17" y="76.27" width="7.57" height="7.72" rx="0.88"/><rect class="cls-6" x="74.83" y="76.27" width="7.57" height="7.72" rx="0.88"/><rect class="cls-6" x="84.5" y="76.27" width="7.57" height="7.72" rx="0.88"/><rect class="cls-6" x="94.16" y="76.27" width="7.57" height="7.72" rx="0.88"/><rect class="cls-6" x="103.82" y="76.27" width="7.57" height="7.72" rx="0.88"/><rect class="cls-6" x="113.48" y="76.27" width="7.57" height="7.72" rx="0.88"/><rect class="cls-6" x="26.53" y="86.71" width="7.57" height="7.72" rx="0.88"/><rect class="cls-6" x="36.19" y="86.71" width="7.57" height="7.72" rx="0.88"/><rect class="cls-6" x="45.85" y="86.71" width="7.57" height="7.72" rx="0.88"/><rect class="cls-6" x="55.51" y="86.71" width="7.57" height="7.72" rx="0.88"/><rect class="cls-6" x="65.17" y="86.71" width="7.57" height="7.72" rx="0.88"/><rect class="cls-6" x="74.83" y="86.71" width="7.57" height="7.72" rx="0.88"/><rect class="cls-6" x="84.5" y="86.71" width="7.57" height="7.72" rx="0.88"/><rect class="cls-6" x="94.16" y="86.71" width="7.57" height="7.72" rx="0.88"/><rect class="cls-6" x="103.82" y="86.71" width="7.57" height="7.72" rx="0.88"/><rect class="cls-6" x="16.87" y="97.15" width="7.57" height="7.72" rx="0.88"/><rect class="cls-6" x="26.53" y="97.15" width="7.57" height="7.72" rx="0.88"/><rect class="cls-6" x="36.19" y="97.15" width="7.57" height="7.72" rx="0.88"/><rect class="cls-6" x="45.85" y="97.15" width="7.57" height="7.72" rx="0.88"/><rect class="cls-6" x="55.51" y="97.15" width="7.57" height="7.72" rx="0.88"/><rect class="cls-6" x="65.17" y="97.15" width="7.57" height="7.72" rx="0.88"/><rect class="cls-6" x="74.83" y="97.15" width="7.57" height="7.72" rx="0.88"/><rect class="cls-6" x="84.5" y="97.15" width="7.57" height="7.72" rx="0.88"/><rect class="cls-6" x="94.16" y="97.15" width="7.57" height="7.72" rx="0.88"/><rect class="cls-6" x="103.82" y="97.15" width="7.57" height="7.72" rx="0.88"/><rect class="cls-6" x="113.48" y="97.15" width="7.57" height="7.72" rx="0.88"/><rect class="cls-6" x="47.59" y="97.15" width="42.74" height="7.72" rx="0.88"/><rect class="cls-7" x="53.82" y="108.04" width="28.49" height="12.26" rx="1.81"/><rect class="cls-17" x="19.94" y="13.81" width="97.91" height="52.39" rx="1.79"/><path class="cls-18" d="M19.94,17.31V12a4.63,4.63,0,0,1,4.59-4.66h88.66a4.63,4.63,0,0,1,4.6,4.66v5.28"/><rect class="cls-4" x="30.02" y="9.13" width="84.42" height="7.31" rx="1.63"/><path d="M32.17,14.48V11.42h.34v1.41a1.21,1.21,0,0,1,.35-.39.73.73,0,0,1,.41-.13.56.56,0,0,1,.31.09.47.47,0,0,1,.2.22.83.83,0,0,1,.06.21,2.58,2.58,0,0,1,0,.47v1.18h-.34V13.26a1.76,1.76,0,0,0,0-.41.27.27,0,0,0-.1-.16.25.25,0,0,0-.16-.06.58.58,0,0,0-.38.18,1.27,1.27,0,0,0-.34.44v1.23Z"/><path d="M36.1,14.4a1.59,1.59,0,0,1-.35.12l-.21,0a.92.92,0,0,1-.38-.08.57.57,0,0,1-.27-.26,1.11,1.11,0,0,1-.09-.51v-.86h-.51v-.29h.51v-.85h.34v.85H36v.29h-.9v.85a.78.78,0,0,0,.06.36.33.33,0,0,0,.15.16.56.56,0,0,0,.23.05,1.11,1.11,0,0,0,.52-.16Z"/><path d="M38.33,14.4a1.59,1.59,0,0,1-.35.12l-.21,0a.92.92,0,0,1-.38-.08.57.57,0,0,1-.27-.26,1.11,1.11,0,0,1-.09-.51v-.86h-.51v-.29H37v-.85h.34v.85h.9v.29h-.9v.85a.78.78,0,0,0,.06.36.33.33,0,0,0,.15.16.56.56,0,0,0,.23.05,1.11,1.11,0,0,0,.52-.16Z"/><path d="M39.17,12.84a1.2,1.2,0,0,1,.37-.4.78.78,0,0,1,.4-.13.61.61,0,0,1,.46.22,1.08,1.08,0,0,1,.2.7,1.53,1.53,0,0,1-.13.66,1.27,1.27,0,0,1-.36.46.93.93,0,0,1-.56.16,1.8,1.8,0,0,1-.29,0h-.09v.83h-.33v-3h.33Zm0,.42v.91a1.55,1.55,0,0,0,.34.05A.65.65,0,0,0,40,14a1.05,1.05,0,0,0,.21-.69.81.81,0,0,0-.12-.48.33.33,0,0,0-.26-.16.55.55,0,0,0-.34.17A1.5,1.5,0,0,0,39.17,13.26Z"/><path d="M41.11,14.37V14a1.49,1.49,0,0,0,.43.19,1.61,1.61,0,0,0,.39.06.61.61,0,0,0,.37-.09.28.28,0,0,0,.11-.21.25.25,0,0,0,0-.15.87.87,0,0,0-.26-.15L42,13.6l-.23-.1a1.14,1.14,0,0,1-.48-.28.49.49,0,0,1-.1-.32.59.59,0,0,1,.19-.43,1,1,0,0,1,.63-.16,2.11,2.11,0,0,1,.62.09v.32A1.84,1.84,0,0,0,42,12.6a.66.66,0,0,0-.34.08.21.21,0,0,0,0,.38,2.47,2.47,0,0,0,.34.15l.22.09a1.3,1.3,0,0,1,.45.26.51.51,0,0,1,.12.35.56.56,0,0,1-.2.45,1,1,0,0,1-.65.18A2,2,0,0,1,41.11,14.37Z"/><path d="M44.15,12.92a.29.29,0,0,1-.21-.09.33.33,0,0,1-.08-.22A.29.29,0,0,1,44,12.4a.25.25,0,0,1,.2-.09.31.31,0,0,1,.3.3.29.29,0,0,1-.09.22A.29.29,0,0,1,44.15,12.92Zm0,1.65a.29.29,0,0,1-.21-.09.33.33,0,0,1-.08-.22A.31.31,0,0,1,44,14a.25.25,0,0,1,.2-.09.29.29,0,0,1,.21.09.31.31,0,0,1,.09.22.29.29,0,0,1-.09.22A.29.29,0,0,1,44.15,14.57Z"/><path d="M45.66,14.57h-.33l1.79-3.12h.32Z"/><path d="M47.89,14.57h-.33l1.79-3.12h.32Z"/><path d="M50.1,14.48l-.33-2.12h.31l.19,1.29,0,.3,0-.3.32-1.29H51l.36,1.29.07.3,0-.3.19-1.29h.26l-.33,2.12h-.31l-.39-1.36-.06-.3h0l-.06.3-.34,1.36Z"/><path d="M52.33,14.48,52,12.36h.31l.19,1.29,0,.3.05-.3.32-1.29h.31l.36,1.29.07.3,0-.3.19-1.29h.26l-.33,2.12h-.31l-.39-1.36-.06-.3h0l-.06.3-.34,1.36Z"/><path d="M54.56,14.48l-.33-2.12h.31l.19,1.29.05.3,0-.3.32-1.29h.31l.36,1.29.07.3,0-.3.19-1.29h.26l-.33,2.12h-.31l-.39-1.36-.06-.3h0l-.06.3-.34,1.36Z"/><path d="M57.53,14.57a.29.29,0,0,1-.21-.09.33.33,0,0,1-.08-.22.31.31,0,0,1,.09-.22.25.25,0,0,1,.2-.09.29.29,0,0,1,.21.09.31.31,0,0,1,.09.22.29.29,0,0,1-.09.22A.29.29,0,0,1,57.53,14.57Z"/><path d="M59,14.48V11.42h.34v1.92l1-1h.45l-1,1,1,1.14h-.47l-1-1.14v1.14Z"/><path d="M61.16,14.48V11.42h.34v1.41a1.11,1.11,0,0,1,.35-.39.71.71,0,0,1,.41-.13.56.56,0,0,1,.31.09.47.47,0,0,1,.2.22.83.83,0,0,1,.06.21,4.11,4.11,0,0,1,0,.47v1.18h-.34V13.26a1.76,1.76,0,0,0,0-.41.34.34,0,0,0-.1-.16.27.27,0,0,0-.16-.06.62.62,0,0,0-.39.18,1.37,1.37,0,0,0-.33.44v1.23Z"/><path d="M64.72,14a1,1,0,0,1-.37.4.75.75,0,0,1-.4.13.56.56,0,0,1-.45-.23,1,1,0,0,1-.21-.69,1.53,1.53,0,0,1,.14-.66,1.19,1.19,0,0,1,.36-.46.91.91,0,0,1,.56-.17l.29,0h.42v1.5a2.07,2.07,0,0,0,.08.62h-.35A3.19,3.19,0,0,1,64.72,14Zm0-.42v-.91a1,1,0,0,0-.33,0,.64.64,0,0,0-.52.25,1.05,1.05,0,0,0-.21.69.83.83,0,0,0,.11.47.33.33,0,0,0,.26.16.55.55,0,0,0,.35-.16A1.48,1.48,0,0,0,64.72,13.59Z"/><path d="M65.62,14.48V12.36H66v.47a1.11,1.11,0,0,1,.35-.39.71.71,0,0,1,.41-.13.57.57,0,0,1,.32.09.56.56,0,0,1,.21.27,2.07,2.07,0,0,1,.06.63v1.18H67V13.26a1.76,1.76,0,0,0,0-.41.34.34,0,0,0-.1-.16.27.27,0,0,0-.16-.06.62.62,0,0,0-.39.18,1.37,1.37,0,0,0-.33.44v1.23Z"/><path d="M69.18,14a1,1,0,0,1-.37.4.75.75,0,0,1-.4.13.56.56,0,0,1-.45-.23,1,1,0,0,1-.21-.69,1.53,1.53,0,0,1,.14-.66,1.19,1.19,0,0,1,.36-.46.91.91,0,0,1,.56-.17l.29,0h.42v1.5a2.07,2.07,0,0,0,.08.62h-.35A3.19,3.19,0,0,1,69.18,14Zm0-.42v-.91a1,1,0,0,0-.33,0,.64.64,0,0,0-.52.25,1.05,1.05,0,0,0-.21.69.83.83,0,0,0,.11.47.33.33,0,0,0,.26.16.55.55,0,0,0,.35-.16A1.48,1.48,0,0,0,69.18,13.59Z"/><path d="M71.78,14.42a1.9,1.9,0,0,1-.64.12,1,1,0,0,1-.91-.54,1.21,1.21,0,0,1-.13-.58,1.14,1.14,0,0,1,.3-.8,1,1,0,0,1,.72-.31,2,2,0,0,1,.66.12v.34a1.49,1.49,0,0,0-.63-.17.64.64,0,0,0-.35.1.6.6,0,0,0-.25.29,1.06,1.06,0,0,0-.09.42,1,1,0,0,0,.17.55.62.62,0,0,0,.54.26l.22,0a2.37,2.37,0,0,0,.39-.12Z"/><path d="M73.64,14a1,1,0,0,1-.37.4.75.75,0,0,1-.4.13.56.56,0,0,1-.45-.23,1,1,0,0,1-.21-.69,1.53,1.53,0,0,1,.14-.66,1.19,1.19,0,0,1,.36-.46.91.91,0,0,1,.56-.17l.29,0H74v1.5a2.07,2.07,0,0,0,.08.62h-.35A3.19,3.19,0,0,1,73.64,14Zm0-.42v-.91a1,1,0,0,0-.33,0,.64.64,0,0,0-.52.25,1.05,1.05,0,0,0-.21.69.83.83,0,0,0,.11.47.33.33,0,0,0,.26.16A.55.55,0,0,0,73.3,14,1.48,1.48,0,0,0,73.64,13.59Z"/><path d="M75.9,14a1.22,1.22,0,0,1-.38.4.73.73,0,0,1-.4.13.56.56,0,0,1-.45-.23,1,1,0,0,1-.2-.69A1.53,1.53,0,0,1,74.6,13,1.19,1.19,0,0,1,75,12.5a.93.93,0,0,1,.56-.17l.29,0h.09v-.94h.33v3.06H75.9Zm0-.42v-.91a1.12,1.12,0,0,0-.34,0,.64.64,0,0,0-.52.25,1.05,1.05,0,0,0-.21.69.83.83,0,0,0,.11.47.33.33,0,0,0,.26.16.53.53,0,0,0,.35-.16A1.67,1.67,0,0,0,75.9,13.59Z"/><path d="M78.45,14.34a1.6,1.6,0,0,1-.76.2.91.91,0,0,1-.49-.14,1,1,0,0,1-.35-.41,1.32,1.32,0,0,1-.13-.56,1.35,1.35,0,0,1,.13-.56.87.87,0,0,1,.84-.56.74.74,0,0,1,.58.26,1.35,1.35,0,0,1,.21.83v.08H77.09a1,1,0,0,0,.08.4.67.67,0,0,0,.24.28.57.57,0,0,0,.32.09,1.47,1.47,0,0,0,.72-.23Zm-1.34-1.12h1v-.06a.65.65,0,0,0-.12-.41.41.41,0,0,0-.33-.15.44.44,0,0,0-.35.16A.86.86,0,0,0,77.11,13.22Z"/><path d="M78.85,14.48V12.36h.29v.49a1.63,1.63,0,0,1,.26-.43.34.34,0,0,1,.25-.11.27.27,0,0,1,.23.12.55.55,0,0,1,.09.34v.11a1,1,0,0,1,.15-.31.64.64,0,0,1,.17-.19.31.31,0,0,1,.21-.07.28.28,0,0,1,.23.11.81.81,0,0,1,.09.46v1.6h-.3V13a1.56,1.56,0,0,0,0-.25.23.23,0,0,0,0-.1.11.11,0,0,0-.07,0c-.07,0-.13.05-.21.15a2.25,2.25,0,0,0-.22.5v1.17h-.28V13c0-.19,0-.3,0-.33a.12.12,0,0,0-.09-.05c-.07,0-.13.05-.2.17a1.91,1.91,0,0,0-.21.43v1.22Z"/><path d="M82,14.4l-.94-2h.37l.75,1.6.62-1.6h.34l-.79,2a2.28,2.28,0,0,1-.47.83.8.8,0,0,1-.58.2,1.14,1.14,0,0,1-.27,0V15a.82.82,0,0,0,.26,0,.54.54,0,0,0,.29-.07.58.58,0,0,0,.24-.23,1.49,1.49,0,0,0,.14-.29Z"/><path d="M84.29,14.57a.29.29,0,0,1-.21-.09.33.33,0,0,1-.08-.22.35.35,0,0,1,.08-.22.29.29,0,0,1,.42,0,.31.31,0,0,1,.09.22.29.29,0,0,1-.09.22A.29.29,0,0,1,84.29,14.57Z"/><path d="M86.52,14.54a.82.82,0,0,1-.69-.32,1.36,1.36,0,0,1,0-1.6.84.84,0,0,1,.69-.31.87.87,0,0,1,.7.31,1.36,1.36,0,0,1,0,1.6A.85.85,0,0,1,86.52,14.54Zm0-.29A.51.51,0,0,0,87,14a1,1,0,0,0,.16-.61,1,1,0,0,0-.16-.6.49.49,0,0,0-.43-.22.5.5,0,0,0-.43.22,1,1,0,0,0-.16.6,1,1,0,0,0,.16.61A.53.53,0,0,0,86.52,14.25Z"/><path d="M88.09,14.48V12.36h.34v.47a1,1,0,0,1,.36-.39.82.82,0,0,1,.46-.13,1.12,1.12,0,0,1,.36,0v.77h-.32v-.48a.39.39,0,0,0-.14,0,.59.59,0,0,0-.37.15,1.69,1.69,0,0,0-.35.47v1.23Z"/><path d="M91.5,14a1.1,1.1,0,0,1-.37.4.73.73,0,0,1-.4.13.56.56,0,0,1-.45-.23,1,1,0,0,1-.21-.69,1.53,1.53,0,0,1,.14-.66,1.19,1.19,0,0,1,.36-.46.91.91,0,0,1,.56-.17l.29,0h.42v1.5c0,.36,0,.58,0,.66a2,2,0,0,1,0,.24.71.71,0,0,1-.34.44,1.12,1.12,0,0,1-.62.16,1.61,1.61,0,0,1-.75-.19v-.36a1.51,1.51,0,0,0,.36.18,1.14,1.14,0,0,0,.4.08.93.93,0,0,0,.29-.05.46.46,0,0,0,.23-.15.57.57,0,0,0,.11-.22,1.58,1.58,0,0,0,0-.34Zm0-.42v-.91a1,1,0,0,0-.33,0,.64.64,0,0,0-.52.25,1.05,1.05,0,0,0-.21.69.83.83,0,0,0,.11.47.33.33,0,0,0,.26.16.53.53,0,0,0,.35-.16A1.48,1.48,0,0,0,91.5,13.59Z"/><path d="M92.49,14.57h-.33L94,11.45h.32Z"/><rect class="cls-4" x="21.89" y="18.98" width="93.82" height="45.38" rx="1.77"/><path class="cls-19" d="M21.16,9.13H29v8.18H21.16Z"/><path class="cls-20" d="M26.91,10.86a2.51,2.51,0,0,0-1.84-.8,2.73,2.73,0,1,0,2.57,3.18H27a2,2,0,0,1-1.91,1.59,2,2,0,0,1,0-4.09,1.91,1.91,0,0,1,1.38.6l-.95,1h2.18V10.06Z"/><rect class="cls-21" x="29.55" y="32.98" width="76.98" height="13.66" rx="3.94"/></svg>