<svg id="Layer_1" data-name="Layer 1" xmlns="http://www.w3.org/2000/svg" viewBox="0 0 486.41 144.07"><defs><style>.cls-1{fill:#0a2a66;}.cls-2{fill:#fff;}.cls-3{fill:#37c5fd;}.cls-4{fill:#10a7e3;}.cls-5{fill:#65d0fa;}.cls-6{fill:#14bf96;}.cls-7{fill:#ccfbf0;}.cls-8{font-size:10.01px;}.cls-10,.cls-8{font-family:Monaco, Monaco;}.cls-9{fill:#93dbf7;}.cls-10{font-size:6px;}</style></defs><title>computers send-recieve copy</title><rect class="cls-1" width="138.02" height="134.6" rx="2.68" ry="2.68"/><rect class="cls-2" x="5.93" y="5.78" width="126.16" height="75.71"/><path class="cls-3" d="M0,81.5H138a0,0,0,0,1,0,0v58.73a3.84,3.84,0,0,1-3.84,3.84H3.84A3.84,3.84,0,0,1,0,140.23V81.5A0,0,0,0,1,0,81.5Z"/><rect class="cls-4" x="5.93" y="88.33" width="9.17" height="8.94" rx="1.06" ry="1.06"/><rect class="cls-4" x="17.63" y="88.33" width="9.17" height="8.94" rx="1.06" ry="1.06"/><rect class="cls-4" x="29.33" y="88.33" width="9.17" height="8.94" rx="1.06" ry="1.06"/><rect class="cls-4" x="41.03" y="88.33" width="9.17" height="8.94" rx="1.06" ry="1.06"/><rect class="cls-4" x="52.73" y="88.33" width="9.17" height="8.94" rx="1.06" ry="1.06"/><rect class="cls-4" x="64.43" y="88.33" width="9.17" height="8.94" rx="1.06" ry="1.06"/><rect class="cls-4" x="76.13" y="88.33" width="9.17" height="8.94" rx="1.06" ry="1.06"/><rect class="cls-4" x="87.83" y="88.33" width="9.17" height="8.94" rx="1.06" ry="1.06"/><rect class="cls-4" x="99.53" y="88.33" width="9.17" height="8.94" rx="1.06" ry="1.06"/><rect class="cls-4" x="111.23" y="88.33" width="9.17" height="8.94" rx="1.06" ry="1.06"/><rect class="cls-4" x="122.92" y="88.33" width="9.17" height="8.94" rx="1.06" ry="1.06"/><rect class="cls-4" x="17.63" y="100.43" width="9.17" height="8.94" rx="1.06" ry="1.06"/><rect class="cls-4" x="29.33" y="100.43" width="9.17" height="8.94" rx="1.06" ry="1.06"/><rect class="cls-4" x="41.03" y="100.43" width="9.17" height="8.94" rx="1.06" ry="1.06"/><rect class="cls-4" x="52.73" y="100.43" width="9.17" height="8.94" rx="1.06" ry="1.06"/><rect class="cls-4" x="64.43" y="100.43" width="9.17" height="8.94" rx="1.06" ry="1.06"/><rect class="cls-4" x="76.13" y="100.43" width="9.17" height="8.94" rx="1.06" ry="1.06"/><rect class="cls-4" x="87.83" y="100.43" width="9.17" height="8.94" rx="1.06" ry="1.06"/><rect class="cls-4" x="99.53" y="100.43" width="9.17" height="8.94" rx="1.06" ry="1.06"/><rect class="cls-4" x="111.23" y="100.43" width="9.17" height="8.94" rx="1.06" ry="1.06"/><rect class="cls-4" x="5.93" y="112.52" width="9.17" height="8.94" rx="1.06" ry="1.06"/><rect class="cls-4" x="17.63" y="112.52" width="9.17" height="8.94" rx="1.06" ry="1.06"/><rect class="cls-4" x="29.33" y="112.52" width="9.17" height="8.94" rx="1.06" ry="1.06"/><rect class="cls-4" x="41.03" y="112.52" width="9.17" height="8.94" rx="1.06" ry="1.06"/><rect class="cls-4" x="52.73" y="112.52" width="9.17" height="8.94" rx="1.06" ry="1.06"/><rect class="cls-4" x="64.43" y="112.52" width="9.17" height="8.94" rx="1.06" ry="1.06"/><rect class="cls-4" x="76.13" y="112.52" width="9.17" height="8.94" rx="1.06" ry="1.06"/><rect class="cls-4" x="87.83" y="112.52" width="9.17" height="8.94" rx="1.06" ry="1.06"/><rect class="cls-4" x="99.53" y="112.52" width="9.17" height="8.94" rx="1.06" ry="1.06"/><rect class="cls-4" x="111.23" y="112.52" width="9.17" height="8.94" rx="1.06" ry="1.06"/><rect class="cls-4" x="122.92" y="112.52" width="9.17" height="8.94" rx="1.06" ry="1.06"/><rect class="cls-4" x="43.13" y="112.52" width="51.76" height="8.94" rx="1.06" ry="1.06"/><rect class="cls-5" x="50.68" y="125.14" width="34.51" height="14.2" rx="2.19" ry="2.19"/><rect class="cls-6" x="159.48" y="105.2" width="183.38" height="7.62" transform="translate(502.33 218.03) rotate(180)"/><polygon class="cls-6" points="144.48 109.02 159.5 121.86 159.5 96.17 144.48 109.02"/><rect class="cls-3" x="356.41" width="130" height="144" rx="3.05" ry="3.05"/><rect class="cls-1" x="363.41" y="31" width="115" height="10"/><rect class="cls-1" x="363.41" y="52.25" width="115" height="10"/><rect class="cls-1" x="364.41" y="73.5" width="115" height="10"/><rect class="cls-1" x="364.41" y="94.75" width="115" height="10"/><rect class="cls-1" x="364.41" y="116" width="115" height="10"/><circle class="cls-7" cx="470.41" cy="14" r="6"/><rect class="cls-6" x="148.48" y="39.2" width="183.38" height="7.62"/><polygon class="cls-6" points="346.85 43.02 331.83 30.17 331.83 55.86 346.85 43.02"/><text class="cls-8" transform="translate(242.36 30.55)">30 ms</text><text class="cls-8" transform="translate(242.36 97.55)">40 ms</text><path class="cls-1" d="M225.33,11.63A10.3,10.3,0,0,0,218,29.14l.07.07a.27.27,0,0,0,.08.07,10.31,10.31,0,1,0,7.23-17.65Zm8,10.78h1.4a9.36,9.36,0,0,1-2.42,5.82l-1-1a.47.47,0,0,0-.66,0,.45.45,0,0,0,0,.66l1,1a9.36,9.36,0,0,1-5.82,2.42V29.92a.47.47,0,1,0-.94,0v1.39A9.35,9.35,0,0,1,219,28.87l1-1a.47.47,0,1,0-.66-.66l-1,1a9.43,9.43,0,0,1-2.41-5.8h1.4a.47.47,0,0,0,.47-.47.44.44,0,0,0-.47-.46H216a9.34,9.34,0,0,1,2.43-5.82l1,1a.42.42,0,0,0,.32.14.51.51,0,0,0,.33-.14.45.45,0,0,0,0-.66l-1-1a9.36,9.36,0,0,1,5.82-2.42V14a.45.45,0,0,0,.47.47.47.47,0,0,0,.47-.47V12.58A9.36,9.36,0,0,1,231.62,15l-1,1a.45.45,0,0,0,0,.66.44.44,0,0,0,.33.14.45.45,0,0,0,.33-.14l1-1a9.33,9.33,0,0,1,2.42,5.82h-1.4a.47.47,0,1,0,0,.93Z"/><path class="cls-1" d="M237.06,14.49a1.46,1.46,0,0,0,1-.42,1.49,1.49,0,0,0,0-2.07l-1.88-1.87a1.46,1.46,0,0,0-2.32,1.71l-.76.75a12.14,12.14,0,0,0-5.92-2.69V8.81h.89a1,1,0,0,0,1-.93V7a1,1,0,0,0-1-1h-5.58a1,1,0,0,0-.94,1v.85a1,1,0,0,0,.94,1h.94V9.9a12.12,12.12,0,0,0-5.91,2.67l-.76-.76a1.5,1.5,0,0,0-.27-1.68,1.47,1.47,0,0,0-2.07,0L212.58,12a1.47,1.47,0,0,0,0,2.07,1.44,1.44,0,0,0,1,.42,1.47,1.47,0,0,0,.93-.33l.81.8a12.19,12.19,0,1,0,20,0l.82-.81A1.49,1.49,0,0,0,237.06,14.49ZM225.21,32a10.13,10.13,0,0,1-8.12-16.18l.06,0a8.57,8.57,0,0,1,1.35-1.48l0-.06a10.09,10.09,0,0,1,5.39-2.44H224a11.15,11.15,0,0,1,2.45,0h.07A10.14,10.14,0,0,1,225.21,32Z"/><path class="cls-9" d="M225.36,15.39V21a1.16,1.16,0,0,1,1.15,1.16,1.18,1.18,0,0,1-1.16,1.17v5.31a6.61,6.61,0,0,0,0-13.22Z"/><path d="M224.89,23.87v4.28a.47.47,0,1,0,.94,0V23.87a1.87,1.87,0,1,0-.94,0Zm.47-2.75a.94.94,0,1,1-.94.94A.94.94,0,0,1,225.36,21.12Z"/><path class="cls-1" d="M225.33,79.25A10.3,10.3,0,0,0,218,96.76l.07.08a.24.24,0,0,0,.08.06,10.31,10.31,0,1,0,7.23-17.65Zm8,10.79h1.4a9.36,9.36,0,0,1-2.42,5.82l-1-1a.45.45,0,0,0-.66,0,.44.44,0,0,0,0,.65l1,1a9.36,9.36,0,0,1-5.82,2.42V97.54a.47.47,0,0,0-.94,0v1.39A9.35,9.35,0,0,1,219,96.49l1-1a.46.46,0,0,0,0-.65.45.45,0,0,0-.66,0l-1,1A9.4,9.4,0,0,1,216,90h1.4a.48.48,0,0,0,.47-.47.45.45,0,0,0-.47-.47H216a9.37,9.37,0,0,1,2.43-5.82l1,1a.42.42,0,0,0,.32.14.51.51,0,0,0,.33-.14.45.45,0,0,0,0-.66l-1-1a9.36,9.36,0,0,1,5.82-2.42v1.4a.44.44,0,0,0,.47.46.46.46,0,0,0,.47-.46V80.2a9.36,9.36,0,0,1,5.82,2.42l-1,1a.45.45,0,0,0,0,.66.44.44,0,0,0,.33.14.45.45,0,0,0,.33-.14l1-1a9.36,9.36,0,0,1,2.42,5.82h-1.4a.47.47,0,0,0,0,.94Z"/><path class="cls-1" d="M237.06,82.11a1.45,1.45,0,0,0,1-2.48l-1.88-1.88a1.46,1.46,0,0,0-2.32,1.71l-.76.76a12.15,12.15,0,0,0-5.92-2.7V76.44h.89a1,1,0,0,0,1-.94v-.89a1,1,0,0,0-1-1h-5.58a1,1,0,0,0-.94,1v.84a1,1,0,0,0,.94,1h.94v1.08a12.22,12.22,0,0,0-5.91,2.68l-.76-.77a1.46,1.46,0,0,0-2.34-1.68l-1.87,1.88a1.45,1.45,0,0,0,1,2.48,1.47,1.47,0,0,0,.93-.33l.81.81a12.19,12.19,0,1,0,20,0l.82-.82A1.43,1.43,0,0,0,237.06,82.11ZM225.21,99.59a10.13,10.13,0,0,1-8.12-16.18l.06,0a9,9,0,0,1,1.35-1.48l0-.06a10.15,10.15,0,0,1,5.39-2.43H224a12.54,12.54,0,0,1,2.45,0h.07a10.14,10.14,0,0,1-1.3,20.19Z"/><path class="cls-9" d="M225.36,83v5.58a1.17,1.17,0,0,1,0,2.33v5.32a6.62,6.62,0,0,0,0-13.23Z"/><path class="cls-9" d="M225.3,83V88.6h.07a1.24,1.24,0,1,1,0,2.47,1.27,1.27,0,0,1-1-.51l-3.73,3.68a6.43,6.43,0,0,0,4.67,2,6.62,6.62,0,0,0,0-13.23Z"/><path d="M223.7,90.69l-3,3a.47.47,0,1,0,.66.66l3-3a1.9,1.9,0,0,0,2.28-.29,1.88,1.88,0,1,0-3-.37ZM226,89.07a.94.94,0,1,1-1.32,0A.92.92,0,0,1,226,89.07Z"/><text class="cls-10" transform="translate(11.82 19.21)">&gt; ping www.google.com</text></svg>