<svg id="Layer_1" data-name="Layer 1" xmlns="http://www.w3.org/2000/svg" width="538.15" height="254.26" viewBox="0 0 538.15 254.26"><defs><style>.cls-1{fill:#e6ecef;}.cls-10,.cls-11,.cls-2,.cls-3,.cls-4,.cls-9{fill:none;stroke:#0a2a66;stroke-miterlimit:10;}.cls-2,.cls-3,.cls-4{stroke-width:1.14px;}.cls-3{stroke-dasharray:12.49 12.49;}.cls-4{stroke-dasharray:12.62 12.62;}.cls-5{opacity:0.4;}.cls-6{fill:#37c5fd;}.cls-7{fill:#0a2a66;}.cls-8{fill:#ccfbf0;}.cls-10,.cls-11,.cls-9{stroke-width:1.14px;}.cls-10{stroke-dasharray:13.08 13.08;}.cls-11{stroke-dasharray:12.63 12.63;}</style></defs><title>IP address hierarchy</title><rect class="cls-1" x="94.04" y="26.3" width="350.06" height="227.39"/><polyline class="cls-2" points="444.1 247.24 444.1 253.69 437.65 253.69"/><line class="cls-3" x1="425.17" y1="253.69" x2="106.74" y2="253.69"/><polyline class="cls-2" points="100.49 253.69 94.04 253.69 94.04 247.24"/><line class="cls-4" x1="94.04" y1="234.62" x2="94.04" y2="39.06"/><polyline class="cls-2" points="94.04 32.75 94.04 26.3 100.49 26.3"/><line class="cls-3" x1="112.98" y1="26.3" x2="431.41" y2="26.3"/><polyline class="cls-2" points="437.65 26.3 444.1 26.3 444.1 32.75"/><line class="cls-4" x1="444.1" y1="45.37" x2="444.1" y2="240.93"/><g class="cls-5"><rect class="cls-6" x="106.38" y="163.63" width="46.44" height="66.65" rx="1.08"/><rect class="cls-7" x="111.36" y="177.38" width="38.27" height="4.04"/><rect class="cls-7" x="111.36" y="185.97" width="38.27" height="4.04"/><rect class="cls-7" x="111.69" y="194.56" width="38.27" height="4.04"/><rect class="cls-7" x="111.69" y="203.15" width="38.27" height="4.04"/><rect class="cls-7" x="111.69" y="211.74" width="38.27" height="4.04"/><circle class="cls-8" cx="145.97" cy="170.15" r="3.28"/><rect class="cls-7" x="111.69" y="220.33" width="38.27" height="4.04"/></g><g class="cls-5"><rect class="cls-6" x="175.6" y="163.63" width="46.44" height="66.65" rx="1.08"/><rect class="cls-7" x="180.57" y="177.38" width="38.27" height="4.04"/><rect class="cls-7" x="180.57" y="185.97" width="38.27" height="4.04"/><rect class="cls-7" x="180.9" y="194.56" width="38.27" height="4.04"/><rect class="cls-7" x="180.9" y="203.15" width="38.27" height="4.04"/><rect class="cls-7" x="180.9" y="211.74" width="38.27" height="4.04"/><circle class="cls-8" cx="215.18" cy="170.15" r="3.28"/><rect class="cls-7" x="180.9" y="220.33" width="38.27" height="4.04"/></g><rect class="cls-6" x="244.81" y="163.63" width="46.44" height="66.65" rx="1.08"/><rect class="cls-7" x="249.79" y="177.38" width="38.27" height="4.04"/><rect class="cls-7" x="249.79" y="185.97" width="38.27" height="4.04"/><rect class="cls-7" x="250.12" y="194.56" width="38.27" height="4.04"/><rect class="cls-7" x="250.12" y="203.15" width="38.27" height="4.04"/><rect class="cls-7" x="250.12" y="211.74" width="38.27" height="4.04"/><circle class="cls-8" cx="284.4" cy="170.15" r="3.28"/><rect class="cls-7" x="250.12" y="220.33" width="38.27" height="4.04"/><g class="cls-5"><rect class="cls-6" x="314.03" y="163.63" width="46.44" height="66.65" rx="1.08"/><rect class="cls-7" x="319" y="177.38" width="38.27" height="4.04"/><rect class="cls-7" x="319" y="185.97" width="38.27" height="4.04"/><rect class="cls-7" x="319.33" y="194.56" width="38.27" height="4.04"/><rect class="cls-7" x="319.33" y="203.15" width="38.27" height="4.04"/><rect class="cls-7" x="319.33" y="211.74" width="38.27" height="4.04"/><circle class="cls-8" cx="353.61" cy="170.15" r="3.28"/><rect class="cls-7" x="319.33" y="220.33" width="38.27" height="4.04"/></g><g class="cls-5"><rect class="cls-6" x="106.38" y="66.51" width="46.44" height="66.65" rx="1.08"/><rect class="cls-7" x="111.36" y="80.26" width="38.27" height="4.04"/><rect class="cls-7" x="111.36" y="88.85" width="38.27" height="4.04"/><rect class="cls-7" x="111.69" y="97.44" width="38.27" height="4.04"/><rect class="cls-7" x="111.69" y="106.03" width="38.27" height="4.04"/><rect class="cls-7" x="111.69" y="114.62" width="38.27" height="4.04"/><circle class="cls-8" cx="145.97" cy="73.03" r="3.28"/><rect class="cls-7" x="111.69" y="123.21" width="38.27" height="4.04"/></g><g class="cls-5"><rect class="cls-6" x="175.6" y="66.51" width="46.44" height="66.65" rx="1.08"/><rect class="cls-7" x="180.57" y="80.26" width="38.27" height="4.04"/><rect class="cls-7" x="180.57" y="88.85" width="38.27" height="4.04"/><rect class="cls-7" x="180.9" y="97.44" width="38.27" height="4.04"/><rect class="cls-7" x="180.9" y="106.03" width="38.27" height="4.04"/><rect class="cls-7" x="180.9" y="114.62" width="38.27" height="4.04"/><circle class="cls-8" cx="215.18" cy="73.03" r="3.28"/><rect class="cls-7" x="180.9" y="123.21" width="38.27" height="4.04"/></g><g class="cls-5"><rect class="cls-6" x="244.81" y="66.51" width="46.44" height="66.65" rx="1.08"/><rect class="cls-7" x="249.79" y="80.26" width="38.27" height="4.04"/><rect class="cls-7" x="249.79" y="88.85" width="38.27" height="4.04"/><rect class="cls-7" x="250.12" y="97.44" width="38.27" height="4.04"/><rect class="cls-7" x="250.12" y="106.03" width="38.27" height="4.04"/><rect class="cls-7" x="250.12" y="114.62" width="38.27" height="4.04"/><circle class="cls-8" cx="284.4" cy="73.03" r="3.28"/><rect class="cls-7" x="250.12" y="123.21" width="38.27" height="4.04"/></g><g class="cls-5"><rect class="cls-6" x="314.03" y="66.51" width="46.44" height="66.65" rx="1.08"/><rect class="cls-7" x="319" y="80.26" width="38.27" height="4.04"/><rect class="cls-7" x="319" y="88.85" width="38.27" height="4.04"/><rect class="cls-7" x="319.33" y="97.44" width="38.27" height="4.04"/><rect class="cls-7" x="319.33" y="106.03" width="38.27" height="4.04"/><rect class="cls-7" x="319.33" y="114.62" width="38.27" height="4.04"/><circle class="cls-8" cx="353.61" cy="73.03" r="3.28"/><rect class="cls-7" x="319.33" y="123.21" width="38.27" height="4.04"/></g><path d="M242.28,16.72V15.65l1.38-1.34c3.31-3.16,4.81-4.84,4.83-6.79A2.32,2.32,0,0,0,245.91,5a4.42,4.42,0,0,0-2.75,1.1l-.56-1.24a5.7,5.7,0,0,1,3.67-1.32,3.66,3.66,0,0,1,4,3.78c0,2.39-1.74,4.33-4.48,7l-1,1v0h5.83v1.45Z"/><path d="M258,16.72V13.19h-6V12l5.79-8.29h1.9v8.07h1.82v1.38h-1.82v3.53Zm0-4.91V7.48q0-1,.06-2H258c-.4.76-.72,1.32-1.08,1.92l-3.17,4.41v0Z"/><path d="M262.92,15.69a1.18,1.18,0,0,1,1.2-1.26,1.17,1.17,0,0,1,1.18,1.26,1.19,1.19,0,1,1-2.38,0Z"/><path d="M270.73,5.38h0L268.43,6.6l-.34-1.34,2.84-1.52h1.5v13h-1.7Z"/><path d="M282.6,16.72V13.19h-6V12l5.79-8.29h1.9v8.07h1.81v1.38h-1.81v3.53Zm0-4.91V7.48q0-1,.06-2h-.06c-.4.76-.72,1.32-1.08,1.92l-3.18,4.41v0Z"/><path d="M295.84,3.74V4.9l-5.65,11.82h-1.82L294,5.24v0h-6.36V3.74Z"/><g class="cls-5"><path d="M108.12,61.14v-.65l.83-.8c2-1.9,2.89-2.9,2.9-4.08a1.39,1.39,0,0,0-1.55-1.52,2.63,2.63,0,0,0-1.65.66l-.34-.75a3.46,3.46,0,0,1,2.21-.79,2.19,2.19,0,0,1,2.38,2.27c0,1.44-1,2.6-2.68,4.18l-.63.58v0h3.51v.88Z"/><path d="M117.54,61.14V59h-3.63v-.7l3.48-5h1.14v4.85h1.09V59h-1.09v2.12Zm0-3v-2.6q0-.62,0-1.23h0c-.24.46-.44.79-.65,1.15L115,58.16v0Z"/><path d="M120.43,61.14v-.65l.83-.8c2-1.9,2.89-2.9,2.9-4.08a1.39,1.39,0,0,0-1.55-1.52,2.63,2.63,0,0,0-1.65.66l-.34-.75a3.46,3.46,0,0,1,2.21-.79,2.2,2.2,0,0,1,2.39,2.27c0,1.44-1,2.6-2.69,4.18l-.63.58v0h3.51v.88Z"/><path d="M126.67,60.51a.71.71,0,0,1,.72-.75.76.76,0,0,1,0,1.51A.71.71,0,0,1,126.67,60.51Z"/><path d="M129.07,61.14v-.65l.83-.8c2-1.9,2.89-2.9,2.9-4.08a1.39,1.39,0,0,0-1.55-1.52,2.63,2.63,0,0,0-1.65.66l-.34-.75a3.46,3.46,0,0,1,2.21-.79,2.19,2.19,0,0,1,2.38,2.27c0,1.44-1,2.6-2.68,4.18l-.63.58v0h3.51v.88Z"/><path d="M137.52,54.33h0l-1.35.73-.21-.81,1.71-.91h.9v7.8h-1Z"/><path d="M146.56,57.16c0,2.65-1,4.11-2.71,4.11-1.52,0-2.55-1.43-2.58-4s1.13-4,2.71-4S146.56,54.67,146.56,57.16Zm-4.23.12c0,2,.62,3.18,1.58,3.18s1.6-1.26,1.6-3.25S145,54,143.92,54C143,54,142.33,55.15,142.33,57.28Z"/></g><g class="cls-5"><path d="M177.35,61.14v-.65l.83-.8c2-1.9,2.89-2.9,2.9-4.08a1.39,1.39,0,0,0-1.55-1.52,2.66,2.66,0,0,0-1.65.66l-.34-.75a3.46,3.46,0,0,1,2.21-.79,2.2,2.2,0,0,1,2.39,2.27c0,1.44-1,2.6-2.69,4.18l-.62.58v0h3.5v.88Z"/><path d="M186.77,61.14V59h-3.62v-.7l3.48-5h1.13v4.85h1.1V59h-1.1v2.12Zm0-3v-2.6c0-.41,0-.82,0-1.23h0c-.24.46-.43.79-.65,1.15l-1.9,2.65v0Z"/><path d="M189.66,61.14v-.65l.83-.8c2-1.9,2.89-2.9,2.9-4.08a1.39,1.39,0,0,0-1.54-1.52,2.66,2.66,0,0,0-1.66.66l-.34-.75a3.46,3.46,0,0,1,2.21-.79,2.2,2.2,0,0,1,2.39,2.27c0,1.44-1,2.6-2.69,4.18l-.62.58v0h3.5v.88Z"/><path d="M195.9,60.51a.71.71,0,0,1,.72-.75.76.76,0,0,1,0,1.51A.71.71,0,0,1,195.9,60.51Z"/><path d="M198.3,61.14v-.65l.83-.8c2-1.9,2.89-2.9,2.9-4.08a1.39,1.39,0,0,0-1.54-1.52,2.66,2.66,0,0,0-1.66.66l-.34-.75a3.46,3.46,0,0,1,2.21-.79,2.2,2.2,0,0,1,2.39,2.27c0,1.44-1.05,2.6-2.69,4.18l-.62.58v0h3.5v.88Z"/><path d="M206.75,54.33h0l-1.36.73-.2-.81,1.7-.91h.9v7.8h-1Z"/><path d="M212.9,54.33h0l-1.35.73-.21-.81,1.7-.91h.9v7.8h-1Z"/></g><g class="cls-5"><path d="M246.58,61.14v-.65l.83-.8c2-1.9,2.89-2.9,2.9-4.08a1.39,1.39,0,0,0-1.54-1.52,2.66,2.66,0,0,0-1.66.66l-.33-.75a3.43,3.43,0,0,1,2.2-.79,2.2,2.2,0,0,1,2.39,2.27c0,1.44-1,2.6-2.69,4.18l-.62.58v0h3.5v.88Z"/><path d="M256,61.14V59h-3.62v-.7l3.48-5H257v4.85h1.09V59H257v2.12Zm0-3v-2.6c0-.41,0-.82,0-1.23h0c-.24.46-.43.79-.65,1.15l-1.9,2.65v0Z"/><path d="M258.9,61.14v-.65l.82-.8c2-1.9,2.89-2.9,2.91-4.08a1.39,1.39,0,0,0-1.55-1.52,2.66,2.66,0,0,0-1.66.66l-.33-.75a3.43,3.43,0,0,1,2.2-.79,2.2,2.2,0,0,1,2.39,2.27c0,1.44-1,2.6-2.69,4.18l-.62.58v0h3.5v.88Z"/><path d="M265.14,60.51a.71.71,0,1,1,.7.76A.7.7,0,0,1,265.14,60.51Z"/><path d="M267.54,61.14v-.65l.82-.8c2-1.9,2.89-2.9,2.9-4.08a1.39,1.39,0,0,0-1.54-1.52,2.66,2.66,0,0,0-1.66.66l-.33-.75a3.43,3.43,0,0,1,2.2-.79,2.2,2.2,0,0,1,2.39,2.27c0,1.44-1,2.6-2.69,4.18l-.62.58v0h3.5v.88Z"/><path d="M276,54.33h0l-1.36.73-.2-.81,1.7-.91h.9v7.8h-1Z"/><path d="M279.85,61.14v-.65l.82-.8c2-1.9,2.89-2.9,2.91-4.08A1.39,1.39,0,0,0,282,54.09a2.66,2.66,0,0,0-1.66.66L280,54a3.46,3.46,0,0,1,2.21-.79,2.19,2.19,0,0,1,2.38,2.27c0,1.44-1,2.6-2.68,4.18l-.63.58v0h3.5v.88Z"/></g><g class="cls-5"><path d="M315.82,61.14v-.65l.82-.8c2-1.9,2.89-2.9,2.91-4.08A1.39,1.39,0,0,0,318,54.09a2.66,2.66,0,0,0-1.66.66L316,54a3.46,3.46,0,0,1,2.21-.79,2.19,2.19,0,0,1,2.38,2.27c0,1.44-1,2.6-2.68,4.18l-.63.58v0h3.5v.88Z"/><path d="M325.23,61.14V59h-3.62v-.7l3.48-5h1.14v4.85h1.09V59h-1.09v2.12Zm0-3v-2.6c0-.41,0-.82,0-1.23h0c-.23.46-.43.79-.64,1.15l-1.91,2.65v0Z"/><path d="M328.13,61.14v-.65l.83-.8c2-1.9,2.89-2.9,2.9-4.08a1.39,1.39,0,0,0-1.55-1.52,2.61,2.61,0,0,0-1.65.66l-.34-.75a3.46,3.46,0,0,1,2.21-.79,2.19,2.19,0,0,1,2.38,2.27c0,1.44-1,2.6-2.68,4.18l-.63.58v0h3.5v.88Z"/><path d="M334.37,60.51a.71.71,0,0,1,.72-.75.76.76,0,0,1,0,1.51A.71.71,0,0,1,334.37,60.51Z"/><path d="M336.77,61.14v-.65l.83-.8c2-1.9,2.89-2.9,2.9-4.08A1.39,1.39,0,0,0,339,54.09a2.61,2.61,0,0,0-1.65.66L337,54a3.46,3.46,0,0,1,2.21-.79,2.19,2.19,0,0,1,2.38,2.27c0,1.44-1,2.6-2.68,4.18l-.63.58v0h3.5v.88Z"/><path d="M345.21,54.33h0l-1.35.73-.21-.81,1.7-.91h.9v7.8h-1Z"/><path d="M349.33,59.93a3.57,3.57,0,0,0,1.73.49c1.35,0,1.77-.86,1.76-1.51,0-1.09-1-1.56-2-1.56h-.59v-.79h.59c.76,0,1.74-.4,1.74-1.32,0-.63-.4-1.18-1.37-1.18a2.83,2.83,0,0,0-1.56.52l-.28-.77a3.71,3.71,0,0,1,2-.6c1.54,0,2.23.91,2.23,1.86a1.93,1.93,0,0,1-1.44,1.83v0a2,2,0,0,1,1.74,2c0,1.25-1,2.34-2.84,2.34a4,4,0,0,1-2-.53Z"/></g><g class="cls-5"><path d="M108.12,159.45v-.65l.82-.8c2-1.89,2.9-2.9,2.91-4.08a1.39,1.39,0,0,0-1.55-1.52,2.66,2.66,0,0,0-1.66.66l-.33-.74a3.41,3.41,0,0,1,2.21-.8,2.2,2.2,0,0,1,2.38,2.27c0,1.44-1,2.6-2.68,4.19l-.63.57v0h3.5v.87Z"/><path d="M117.54,159.45v-2.12h-3.63v-.7l3.48-5h1.14v4.84h1.09v.83h-1.09v2.12Zm0-2.95v-2.6c0-.41,0-.82,0-1.22h0c-.24.45-.44.79-.65,1.15L115,156.48v0Z"/><path d="M120.43,159.45v-.65l.83-.8c2-1.89,2.89-2.9,2.9-4.08a1.39,1.39,0,0,0-1.55-1.52,2.63,2.63,0,0,0-1.65.66l-.34-.74a3.41,3.41,0,0,1,2.21-.8,2.19,2.19,0,0,1,2.38,2.27c0,1.44-1,2.6-2.68,4.19l-.63.57v0h3.51v.87Z"/><path d="M126.67,158.83a.71.71,0,0,1,.72-.76.76.76,0,1,1-.72.76Z"/><path d="M129.07,159.45v-.65l.83-.8c2-1.89,2.89-2.9,2.9-4.08a1.39,1.39,0,0,0-1.55-1.52,2.63,2.63,0,0,0-1.65.66l-.34-.74a3.41,3.41,0,0,1,2.21-.8,2.19,2.19,0,0,1,2.38,2.27c0,1.44-1,2.6-2.68,4.19l-.63.57v0h3.51v.87Z"/><path d="M137.51,152.64h0l-1.35.73-.21-.8,1.71-.91h.89v7.79h-1Z"/><path d="M146,152.54h-3l-.3,2a3.48,3.48,0,0,1,.63-.05,3.28,3.28,0,0,1,1.68.42,2.21,2.21,0,0,1,1.12,2,2.7,2.7,0,0,1-2.9,2.66,3.84,3.84,0,0,1-1.95-.48l.27-.8a3.5,3.5,0,0,0,1.66.43,1.72,1.72,0,0,0,1.85-1.69c0-1-.68-1.73-2.24-1.73a7.29,7.29,0,0,0-1.08.09l.5-3.74H146Z"/></g><g class="cls-5"><path d="M177,159.45v-.65l.83-.8c2-1.89,2.89-2.9,2.9-4.08a1.39,1.39,0,0,0-1.54-1.52,2.66,2.66,0,0,0-1.66.66l-.33-.74a3.38,3.38,0,0,1,2.2-.8,2.2,2.2,0,0,1,2.39,2.27c0,1.44-1,2.6-2.69,4.19l-.62.57v0H182v.87Z"/><path d="M186.45,159.45v-2.12h-3.62v-.7l3.48-5h1.14v4.84h1.09v.83h-1.09v2.12Zm0-2.95v-2.6c0-.41,0-.82,0-1.22h0c-.24.45-.43.79-.65,1.15l-1.9,2.65v0Z"/><path d="M189.35,159.45v-.65l.82-.8c2-1.89,2.89-2.9,2.91-4.08a1.39,1.39,0,0,0-1.55-1.52,2.66,2.66,0,0,0-1.66.66l-.33-.74a3.4,3.4,0,0,1,2.2-.8,2.2,2.2,0,0,1,2.39,2.27c0,1.44-1,2.6-2.69,4.19l-.62.57v0h3.5v.87Z"/><path d="M195.59,158.83a.71.71,0,1,1,1.42,0,.71.71,0,1,1-1.42,0Z"/><path d="M198,159.45v-.65l.82-.8c2-1.89,2.89-2.9,2.91-4.08a1.39,1.39,0,0,0-1.55-1.52,2.66,2.66,0,0,0-1.66.66l-.33-.74a3.38,3.38,0,0,1,2.2-.8,2.2,2.2,0,0,1,2.39,2.27c0,1.44-1,2.6-2.69,4.19l-.62.57v0H203v.87Z"/><path d="M206.43,152.64h0l-1.36.73-.2-.8,1.7-.91h.9v7.79h-1Z"/><path d="M214.75,152.4a3.89,3.89,0,0,0-.8,0,3.16,3.16,0,0,0-2.71,2.77h0a2.37,2.37,0,0,1,4.23,1.62,2.6,2.6,0,0,1-2.59,2.74c-1.66,0-2.75-1.29-2.75-3.32a4.93,4.93,0,0,1,1.31-3.51,4.25,4.25,0,0,1,2.5-1.15,4.76,4.76,0,0,1,.77-.06Zm-.3,4.5a1.59,1.59,0,0,0-1.61-1.79,1.74,1.74,0,0,0-1.51,1,.93.93,0,0,0-.12.47c0,1.28.61,2.23,1.71,2.23C213.84,158.77,214.45,158,214.45,156.9Z"/></g><path d="M246,159.45v-.65l.83-.8c2-1.89,2.89-2.9,2.9-4.08a1.39,1.39,0,0,0-1.55-1.52,2.66,2.66,0,0,0-1.65.66l-.34-.74a3.41,3.41,0,0,1,2.21-.8,2.2,2.2,0,0,1,2.39,2.27c0,1.44-1.05,2.6-2.69,4.19l-.62.57v0h3.5v.87Z"/><path d="M255.37,159.45v-2.12h-3.62v-.7l3.47-5h1.14v4.84h1.1v.83h-1.1v2.12Zm0-2.95v-2.6q0-.61,0-1.23h0c-.24.46-.43.8-.65,1.16l-1.91,2.65v0Z"/><path d="M258.26,159.45v-.65l.83-.8c2-1.89,2.89-2.9,2.9-4.08a1.39,1.39,0,0,0-1.55-1.52,2.66,2.66,0,0,0-1.65.66l-.34-.74a3.41,3.41,0,0,1,2.21-.8,2.2,2.2,0,0,1,2.39,2.27c0,1.44-1.05,2.6-2.69,4.19l-.62.57v0h3.5v.87Z"/><path d="M264.5,158.83a.71.71,0,0,1,.72-.76.76.76,0,1,1-.72.76Z"/><path d="M266.9,159.45v-.65l.83-.8c2-1.89,2.89-2.9,2.9-4.08a1.39,1.39,0,0,0-1.55-1.52,2.66,2.66,0,0,0-1.65.66l-.34-.74a3.41,3.41,0,0,1,2.21-.8,2.2,2.2,0,0,1,2.39,2.27c0,1.44-1.05,2.6-2.69,4.19l-.62.57v0h3.5v.87Z"/><path d="M275.35,152.64h0l-1.35.73-.21-.8,1.71-.91h.9v7.79h-1Z"/><path d="M284.27,151.66v.69l-3.39,7.1h-1.09l3.38-6.89v0h-3.81v-.87Z"/><g class="cls-5"><path d="M314.87,159.45v-.65l.82-.8c2-1.89,2.89-2.9,2.91-4.08a1.39,1.39,0,0,0-1.55-1.52,2.66,2.66,0,0,0-1.66.66l-.33-.74a3.4,3.4,0,0,1,2.2-.8,2.2,2.2,0,0,1,2.39,2.27c0,1.44-1,2.6-2.68,4.19l-.63.57v0h3.5v.87Z"/><path d="M324.28,159.45v-2.12h-3.62v-.7l3.48-5h1.14v4.84h1.09v.83h-1.09v2.12Zm0-2.95v-2.6c0-.41,0-.82,0-1.23h0c-.23.46-.43.8-.64,1.16l-1.91,2.65v0Z"/><path d="M327.18,159.45v-.65l.83-.8c2-1.89,2.89-2.9,2.9-4.08a1.39,1.39,0,0,0-1.55-1.52,2.61,2.61,0,0,0-1.65.66l-.34-.74a3.41,3.41,0,0,1,2.21-.8,2.19,2.19,0,0,1,2.38,2.27c0,1.44-1,2.6-2.68,4.19l-.63.57v0h3.5v.87Z"/><path d="M333.42,158.83a.71.71,0,0,1,.72-.76.76.76,0,1,1-.72.76Z"/><path d="M335.82,159.45v-.65l.82-.8c2-1.89,2.9-2.9,2.91-4.08A1.39,1.39,0,0,0,338,152.4a2.61,2.61,0,0,0-1.65.66l-.34-.74a3.41,3.41,0,0,1,2.21-.8,2.19,2.19,0,0,1,2.38,2.27c0,1.44-1,2.6-2.68,4.19l-.63.57v0h3.5v.87Z"/><path d="M344.26,152.64h0l-1.35.73-.21-.8,1.7-.91h.9v7.79h-1Z"/><path d="M348,157.47a2.22,2.22,0,0,1,1.55-2.08v0a1.93,1.93,0,0,1-1.24-1.75,2.19,2.19,0,0,1,2.41-2.08,2,2,0,0,1,2.27,1.92,2,2,0,0,1-1.28,1.83v0a2.17,2.17,0,0,1,1.57,2,2.4,2.4,0,0,1-2.65,2.26C349,159.58,348,158.61,348,157.47Zm4.2-.05c0-.94-.66-1.4-1.71-1.7a1.69,1.69,0,0,0-1.41,1.61,1.45,1.45,0,0,0,1.56,1.49A1.41,1.41,0,0,0,352.23,157.42Zm-2.9-3.89c0,.78.59,1.2,1.49,1.44a1.54,1.54,0,0,0,1.18-1.42,1.21,1.21,0,0,0-1.32-1.27A1.24,1.24,0,0,0,349.33,153.53Z"/></g><g class="cls-5"><rect class="cls-6" x="383.24" y="66.51" width="46.44" height="66.65" rx="1.08"/><rect class="cls-7" x="388.21" y="80.26" width="38.27" height="4.04"/><rect class="cls-7" x="388.21" y="88.85" width="38.27" height="4.04"/><rect class="cls-7" x="388.55" y="97.44" width="38.27" height="4.04"/><rect class="cls-7" x="388.55" y="106.03" width="38.27" height="4.04"/><rect class="cls-7" x="388.55" y="114.62" width="38.27" height="4.04"/><circle class="cls-8" cx="422.83" cy="73.03" r="3.28"/><rect class="cls-7" x="388.55" y="123.21" width="38.27" height="4.04"/></g><g class="cls-5"><rect class="cls-6" x="383.24" y="163.63" width="46.44" height="66.65" rx="1.08"/><rect class="cls-7" x="388.21" y="177.38" width="38.27" height="4.04"/><rect class="cls-7" x="388.21" y="185.97" width="38.27" height="4.04"/><rect class="cls-7" x="388.55" y="194.56" width="38.27" height="4.04"/><rect class="cls-7" x="388.55" y="203.15" width="38.27" height="4.04"/><rect class="cls-7" x="388.55" y="211.74" width="38.27" height="4.04"/><circle class="cls-8" cx="422.83" cy="170.15" r="3.28"/><rect class="cls-7" x="388.55" y="220.33" width="38.27" height="4.04"/></g><g class="cls-5"><path d="M385.05,61.14v-.65l.83-.8c2-1.9,2.89-2.9,2.9-4.08a1.39,1.39,0,0,0-1.55-1.52,2.66,2.66,0,0,0-1.65.66l-.34-.75a3.46,3.46,0,0,1,2.21-.79,2.2,2.2,0,0,1,2.39,2.27c0,1.44-1,2.6-2.69,4.18l-.62.58v0H390v.88Z"/><path d="M394.47,61.14V59h-3.62v-.7l3.48-5h1.13v4.85h1.1V59h-1.1v2.12Zm0-3v-2.6c0-.41,0-.82,0-1.23h0c-.24.46-.43.79-.65,1.15l-1.91,2.65v0Z"/><path d="M397.36,61.14v-.65l.83-.8c2-1.9,2.89-2.9,2.9-4.08a1.39,1.39,0,0,0-1.54-1.52,2.66,2.66,0,0,0-1.66.66l-.34-.75a3.46,3.46,0,0,1,2.21-.79,2.2,2.2,0,0,1,2.39,2.27c0,1.44-1,2.6-2.69,4.18l-.62.58v0h3.5v.88Z"/><path d="M403.6,60.51a.71.71,0,0,1,.72-.75.76.76,0,0,1,0,1.51A.71.71,0,0,1,403.6,60.51Z"/><path d="M406,61.14v-.65l.83-.8c2-1.9,2.89-2.9,2.9-4.08a1.39,1.39,0,0,0-1.55-1.52,2.66,2.66,0,0,0-1.65.66l-.34-.75a3.46,3.46,0,0,1,2.21-.79,2.2,2.2,0,0,1,2.39,2.27c0,1.44-1.05,2.6-2.69,4.18l-.62.58v0H411v.88Z"/><path d="M414.45,54.33h0l-1.36.73-.2-.81,1.7-.91h.9v7.8h-1Z"/><path d="M421.58,61.14V59H418v-.7l3.48-5h1.14v4.85h1.09V59h-1.09v2.12Zm0-3v-2.6q0-.62,0-1.23h0c-.24.46-.44.79-.65,1.15L419,58.16v0Z"/></g><g class="cls-5"><path d="M383.78,159.45v-.65l.83-.8c2-1.89,2.89-2.9,2.9-4.08A1.39,1.39,0,0,0,386,152.4a2.66,2.66,0,0,0-1.66.66l-.34-.74a3.41,3.41,0,0,1,2.21-.8,2.2,2.2,0,0,1,2.39,2.27c0,1.44-1.05,2.6-2.69,4.19l-.62.57v0h3.5v.87Z"/><path d="M393.2,159.45v-2.12h-3.62v-.7l3.48-5h1.14v4.84h1.09v.83H394.2v2.12Zm0-2.95v-2.6c0-.41,0-.82,0-1.22h0c-.24.45-.43.79-.65,1.15l-1.9,2.65v0Z"/><path d="M396.09,159.45v-.65l.83-.8c2-1.89,2.89-2.9,2.9-4.08a1.39,1.39,0,0,0-1.54-1.52,2.66,2.66,0,0,0-1.66.66l-.33-.74a3.38,3.38,0,0,1,2.2-.8,2.2,2.2,0,0,1,2.39,2.27c0,1.44-1,2.6-2.69,4.19l-.62.57v0h3.5v.87Z"/><path d="M402.33,158.83a.71.71,0,0,1,.72-.76.76.76,0,1,1-.72.76Z"/><path d="M404.73,159.45v-.65l.83-.8c2-1.89,2.89-2.9,2.9-4.08a1.39,1.39,0,0,0-1.54-1.52,2.66,2.66,0,0,0-1.66.66l-.33-.74a3.38,3.38,0,0,1,2.2-.8,2.2,2.2,0,0,1,2.39,2.27c0,1.44-1,2.6-2.69,4.19l-.62.57v0h3.5v.87Z"/><path d="M413.18,152.64h0l-1.36.73-.2-.8,1.7-.91h.9v7.79h-1Z"/><path d="M417.66,158.71a4.46,4.46,0,0,0,.85,0,2.9,2.9,0,0,0,1.63-.75,3.43,3.43,0,0,0,1-2.08h0a2.3,2.3,0,0,1-1.84.84,2.26,2.26,0,0,1-2.3-2.39,2.67,2.67,0,0,1,2.66-2.77c1.59,0,2.58,1.3,2.58,3.29a4.93,4.93,0,0,1-1.35,3.66,3.8,3.8,0,0,1-2.26,1,5.09,5.09,0,0,1-1,.06Zm.38-4.49a1.51,1.51,0,0,0,1.5,1.66,1.72,1.72,0,0,0,1.53-.82.59.59,0,0,0,.1-.38c0-1.33-.49-2.35-1.59-2.35C418.68,152.33,418,153.12,418,154.22Z"/></g><g class="cls-5"><path d="M12.8,16.72V15.65l1.38-1.34C17.5,11.15,19,9.47,19,7.52A2.32,2.32,0,0,0,16.44,5a4.43,4.43,0,0,0-2.76,1.1l-.56-1.24A5.7,5.7,0,0,1,16.8,3.52a3.65,3.65,0,0,1,4,3.78c0,2.39-1.74,4.33-4.47,7l-1,1v0h5.83v1.45Z"/><path d="M28.48,16.72V13.19h-6V12l5.79-8.29h1.9v8.07H32v1.38H30.14v3.53Zm0-4.91V7.48q0-1,.06-2h-.06c-.39.76-.72,1.32-1.07,1.92l-3.18,4.41v0Z"/><path d="M33.44,15.69a1.18,1.18,0,0,1,1.2-1.26,1.17,1.17,0,0,1,1.18,1.26,1.19,1.19,0,1,1-2.38,0Z"/><path d="M41.25,5.38h0L39,6.6l-.34-1.34,2.83-1.52H43v13h-1.7Z"/><path d="M53.12,16.72V13.19h-6V12l5.79-8.29h1.9v8.07H56.6v1.38H54.78v3.53Zm0-4.91V7.48q0-1,.06-2h-.06c-.4.76-.72,1.32-1.08,1.92l-3.17,4.41v0Z"/><path d="M65.35,5A6.36,6.36,0,0,0,64,5.06a5.28,5.28,0,0,0-4.52,4.61h.07a4,4,0,0,1,7,2.7,4.34,4.34,0,0,1-4.32,4.57c-2.77,0-4.59-2.15-4.59-5.53a8.19,8.19,0,0,1,2.19-5.85,7.08,7.08,0,0,1,4.16-1.92,8.45,8.45,0,0,1,1.28-.1Zm-.5,7.49c0-1.86-1.06-3-2.68-3a2.9,2.9,0,0,0-2.52,1.6,1.6,1.6,0,0,0-.19.78c0,2.14,1,3.72,2.85,3.72C63.83,15.59,64.85,14.33,64.85,12.47Z"/></g><g class="cls-5"><polyline class="cls-9" points="78.62 247.37 78.62 253.69 72.3 253.69"/><line class="cls-10" x1="59.22" y1="253.69" x2="13.43" y2="253.69"/><polyline class="cls-9" points="6.89 253.69 0.57 253.69 0.57 247.37"/><line class="cls-11" x1="0.57" y1="234.74" x2="0.57" y2="38.93"/><polyline class="cls-9" points="0.57 32.62 0.57 26.3 6.89 26.3"/><line class="cls-10" x1="19.97" y1="26.3" x2="65.76" y2="26.3"/><polyline class="cls-9" points="72.3 26.3 78.62 26.3 78.62 32.62"/><line class="cls-11" x1="78.62" y1="45.25" x2="78.62" y2="241.05"/></g><g class="cls-5"><rect class="cls-6" x="13.49" y="66.8" width="46.44" height="66.65" rx="1.08"/><rect class="cls-7" x="18.46" y="80.54" width="38.27" height="4.04"/><rect class="cls-7" x="18.46" y="89.13" width="38.27" height="4.04"/><rect class="cls-7" x="18.8" y="97.72" width="38.27" height="4.04"/><rect class="cls-7" x="18.8" y="106.31" width="38.27" height="4.04"/><rect class="cls-7" x="18.8" y="114.9" width="38.27" height="4.04"/><circle class="cls-8" cx="53.08" cy="73.32" r="3.28"/><rect class="cls-7" x="18.8" y="123.5" width="38.27" height="4.04"/></g><g class="cls-5"><path d="M15.22,61.42v-.64l.83-.81c2-1.89,2.89-2.9,2.9-4.08a1.39,1.39,0,0,0-1.54-1.52,2.66,2.66,0,0,0-1.66.66l-.33-.74a3.38,3.38,0,0,1,2.2-.79A2.19,2.19,0,0,1,20,55.76c0,1.44-1,2.61-2.69,4.19l-.62.57v0h3.5v.87Z"/><path d="M24.64,61.42V59.3H21v-.69l3.48-5h1.14v4.84h1.09v.83H25.64v2.12Zm0-3v-2.6c0-.41,0-.82,0-1.22h0c-.24.45-.43.79-.65,1.15l-1.9,2.65v0Z"/><path d="M27.54,61.42v-.64l.82-.81c2-1.89,2.89-2.9,2.9-4.08a1.39,1.39,0,0,0-1.54-1.52,2.66,2.66,0,0,0-1.66.66l-.33-.74a3.38,3.38,0,0,1,2.2-.79,2.19,2.19,0,0,1,2.39,2.26c0,1.44-1,2.61-2.69,4.19l-.62.57v0h3.5v.87Z"/><path d="M33.78,60.8a.71.71,0,1,1,1.42,0,.71.71,0,1,1-1.42,0Z"/><path d="M36.18,61.42v-.64L37,60c2-1.89,2.89-2.9,2.9-4.08a1.39,1.39,0,0,0-1.54-1.52A2.66,2.66,0,0,0,36.7,55l-.33-.74a3.38,3.38,0,0,1,2.2-.79A2.19,2.19,0,0,1,41,55.76c0,1.44-1,2.61-2.69,4.19l-.62.57v0h3.5v.87Z"/><path d="M44.62,54.61h0l-1.36.73-.2-.8,1.7-.91h.9v7.79h-1Z"/><path d="M53.67,57.44c0,2.65-1,4.12-2.71,4.12-1.53,0-2.56-1.43-2.58-4s1.13-4,2.71-4S53.67,55,53.67,57.44Zm-4.24.12c0,2,.63,3.18,1.59,3.18s1.59-1.26,1.59-3.25-.49-3.18-1.58-3.18C50.11,54.31,49.43,55.44,49.43,57.56Z"/></g><g class="cls-5"><rect class="cls-6" x="16.37" y="163.92" width="46.44" height="66.65" rx="1.08"/><rect class="cls-7" x="21.35" y="177.66" width="38.27" height="4.04"/><rect class="cls-7" x="21.35" y="186.25" width="38.27" height="4.04"/><rect class="cls-7" x="21.68" y="194.84" width="38.27" height="4.04"/><rect class="cls-7" x="21.68" y="203.43" width="38.27" height="4.04"/><rect class="cls-7" x="21.68" y="212.02" width="38.27" height="4.04"/><circle class="cls-8" cx="55.96" cy="170.44" r="3.28"/><rect class="cls-7" x="21.68" y="220.62" width="38.27" height="4.04"/></g><g class="cls-5"><path d="M18.11,158.54v-.64l.82-.81c2-1.89,2.9-2.9,2.91-4.08a1.39,1.39,0,0,0-1.55-1.52,2.61,2.61,0,0,0-1.65.66l-.34-.74a3.41,3.41,0,0,1,2.21-.79,2.19,2.19,0,0,1,2.38,2.26c0,1.44-1,2.61-2.68,4.19l-.63.57v0h3.5v.87Z"/><path d="M27.53,158.54v-2.12H23.9v-.69l3.48-5h1.14v4.84h1.09v.83H28.52v2.12Zm0-2.95V153c0-.41,0-.82,0-1.22h0c-.24.45-.44.79-.65,1.15L25,155.57v0Z"/><path d="M30.42,158.54v-.64l.83-.81c2-1.89,2.89-2.9,2.9-4.08a1.39,1.39,0,0,0-1.55-1.52,2.63,2.63,0,0,0-1.65.66l-.34-.74a3.41,3.41,0,0,1,2.21-.79,2.19,2.19,0,0,1,2.38,2.26c0,1.44-1,2.61-2.68,4.19l-.63.57v0H35.4v.87Z"/><path d="M36.66,157.92a.72.72,0,0,1,.72-.76.76.76,0,1,1-.72.76Z"/><path d="M39.06,158.54v-.64l.83-.81c2-1.89,2.89-2.9,2.9-4.08a1.39,1.39,0,0,0-1.55-1.52,2.63,2.63,0,0,0-1.65.66l-.34-.74a3.41,3.41,0,0,1,2.21-.79,2.19,2.19,0,0,1,2.38,2.26c0,1.44-1,2.61-2.68,4.19l-.63.57v0H44v.87Z"/><path d="M47.51,151.73h0l-1.35.73-.21-.8,1.71-.91h.89v7.79h-1Z"/><path d="M56,151.64h-3l-.3,2a3.52,3.52,0,0,1,.64,0,3.27,3.27,0,0,1,1.67.42,2.21,2.21,0,0,1,1.12,2,2.7,2.7,0,0,1-2.9,2.66,3.88,3.88,0,0,1-2-.47l.27-.81a3.5,3.5,0,0,0,1.66.43,1.72,1.72,0,0,0,1.85-1.69c0-1-.68-1.72-2.24-1.72a7.6,7.6,0,0,0-1.08.08l.5-3.74H56Z"/></g><g class="cls-5"><path d="M471.76,16.72V15.65l1.38-1.34c3.31-3.16,4.81-4.84,4.83-6.79A2.32,2.32,0,0,0,475.39,5a4.37,4.37,0,0,0-2.75,1.1l-.56-1.24a5.66,5.66,0,0,1,3.67-1.32,3.66,3.66,0,0,1,4,3.78c0,2.39-1.74,4.33-4.48,7l-1,1v0h5.84v1.45Z"/><path d="M487.44,16.72V13.19h-6V12l5.79-8.29h1.9v8.07h1.81v1.38H489.1v3.53Zm0-4.91V7.48q0-1,.06-2h-.06c-.4.76-.72,1.32-1.08,1.92l-3.18,4.41v0Z"/><path d="M492.4,15.69a1.18,1.18,0,0,1,1.2-1.26,1.17,1.17,0,0,1,1.17,1.26,1.19,1.19,0,1,1-2.37,0Z"/><path d="M500.21,5.38h0L497.91,6.6l-.34-1.34,2.84-1.52h1.49v13h-1.69Z"/><path d="M512.08,16.72V13.19h-6V12l5.8-8.29h1.89v8.07h1.82v1.38h-1.82v3.53Zm0-4.91V7.48q0-1,.06-2h-.06c-.4.76-.72,1.32-1.08,1.92l-3.18,4.41v0Z"/><path d="M516.73,13.43A3.71,3.71,0,0,1,519.31,10l0-.06A3.21,3.21,0,0,1,517.23,7c0-2.06,1.74-3.46,4-3.46,2.51,0,3.77,1.58,3.77,3.2a3.28,3.28,0,0,1-2.14,3v.06a3.6,3.6,0,0,1,2.62,3.36c0,2.26-1.94,3.77-4.41,3.77C518.37,16.94,516.73,15.33,516.73,13.43Zm7-.08c0-1.58-1.1-2.34-2.85-2.84a2.82,2.82,0,0,0-2.34,2.68,2.4,2.4,0,0,0,2.6,2.48A2.35,2.35,0,0,0,523.72,13.35Zm-4.83-6.49c0,1.3,1,2,2.48,2.39a2.54,2.54,0,0,0,2-2.35,2,2,0,0,0-2.19-2.12A2.07,2.07,0,0,0,518.89,6.86Z"/></g><g class="cls-5"><path class="cls-7" d="M32.94,243a1.25,1.25,0,0,1,.1-.51,1.51,1.51,0,0,1,.27-.42,1.37,1.37,0,0,1,.42-.29,1.25,1.25,0,0,1,.51-.1,1.3,1.3,0,0,1,.52.1,1.37,1.37,0,0,1,.42.29,1.34,1.34,0,0,1,.28.42,1.25,1.25,0,0,1,.1.51,1.27,1.27,0,0,1-.1.52,1.34,1.34,0,0,1-.28.42,1.32,1.32,0,0,1-.42.27,1.3,1.3,0,0,1-.52.1,1.25,1.25,0,0,1-.51-.1,1.32,1.32,0,0,1-.42-.27,1.51,1.51,0,0,1-.27-.42A1.27,1.27,0,0,1,32.94,243Z"/><path class="cls-7" d="M37.9,243a1.25,1.25,0,0,1,.1-.51,1.17,1.17,0,0,1,.27-.42,1.22,1.22,0,0,1,.41-.29,1.34,1.34,0,0,1,.52-.1,1.25,1.25,0,0,1,.51.1,1.42,1.42,0,0,1,.71.71,1.25,1.25,0,0,1,.1.51,1.27,1.27,0,0,1-.1.52,1.37,1.37,0,0,1-.29.42,1.32,1.32,0,0,1-.42.27,1.25,1.25,0,0,1-.51.1,1.34,1.34,0,0,1-.52-.1,1.2,1.2,0,0,1-.68-.69A1.27,1.27,0,0,1,37.9,243Z"/><path class="cls-7" d="M42.85,243a1.45,1.45,0,0,1,.1-.51,1.51,1.51,0,0,1,.27-.42,1.37,1.37,0,0,1,.42-.29,1.25,1.25,0,0,1,.51-.1,1.27,1.27,0,0,1,.52.1,1.37,1.37,0,0,1,.42.29,1.34,1.34,0,0,1,.28.42,1.26,1.26,0,0,1,0,1,1.34,1.34,0,0,1-.28.42,1.32,1.32,0,0,1-.42.27,1.27,1.27,0,0,1-.52.1,1.25,1.25,0,0,1-.51-.1,1.32,1.32,0,0,1-.42-.27,1.51,1.51,0,0,1-.27-.42A1.46,1.46,0,0,1,42.85,243Z"/></g><path class="cls-7" d="M261.77,242.63a1.25,1.25,0,0,1,.1-.51,1.17,1.17,0,0,1,.27-.42,1.2,1.2,0,0,1,.41-.28,1.31,1.31,0,0,1,.52-.11,1.26,1.26,0,0,1,.51.11,1.34,1.34,0,0,1,.42.28,1.37,1.37,0,0,1,.29.42,1.25,1.25,0,0,1,.1.51,1.24,1.24,0,0,1-.1.52,1.37,1.37,0,0,1-.29.42,1.34,1.34,0,0,1-.42.28,1.45,1.45,0,0,1-.51.1,1.5,1.5,0,0,1-.52-.1,1.2,1.2,0,0,1-.41-.28,1.17,1.17,0,0,1-.27-.42A1.24,1.24,0,0,1,261.77,242.63Z"/><path class="cls-7" d="M266.72,242.63a1.25,1.25,0,0,1,.1-.51,1.51,1.51,0,0,1,.27-.42,1.34,1.34,0,0,1,.42-.28,1.26,1.26,0,0,1,1,0,1.29,1.29,0,0,1,.7.7,1.26,1.26,0,0,1,.11.51,1.24,1.24,0,0,1-.11.52,1.29,1.29,0,0,1-.7.7,1.38,1.38,0,0,1-1,0,1.34,1.34,0,0,1-.42-.28,1.51,1.51,0,0,1-.27-.42A1.24,1.24,0,0,1,266.72,242.63Z"/><path class="cls-7" d="M271.68,242.63a1.25,1.25,0,0,1,.1-.51,1.32,1.32,0,0,1,.27-.42,1.24,1.24,0,0,1,.42-.28,1.24,1.24,0,0,1,1,0,1.15,1.15,0,0,1,.42.28,1.37,1.37,0,0,1,.29.42,1.25,1.25,0,0,1,.1.51,1.24,1.24,0,0,1-.1.52,1.37,1.37,0,0,1-.29.42,1.15,1.15,0,0,1-.42.28,1.35,1.35,0,0,1-1,0,1.24,1.24,0,0,1-.42-.28,1.32,1.32,0,0,1-.27-.42A1.24,1.24,0,0,1,271.68,242.63Z"/><path class="cls-7" d="M261.77,39.79a1.25,1.25,0,0,1,.1-.51,1.17,1.17,0,0,1,.27-.42,1.2,1.2,0,0,1,.41-.28,1.31,1.31,0,0,1,.52-.11,1.26,1.26,0,0,1,.51.11,1.34,1.34,0,0,1,.42.28,1.37,1.37,0,0,1,.29.42,1.25,1.25,0,0,1,.1.51,1.24,1.24,0,0,1-.1.52,1.37,1.37,0,0,1-.29.42,1.34,1.34,0,0,1-.42.28,1.45,1.45,0,0,1-.51.1,1.5,1.5,0,0,1-.52-.1,1.2,1.2,0,0,1-.41-.28,1.17,1.17,0,0,1-.27-.42A1.24,1.24,0,0,1,261.77,39.79Z"/><path class="cls-7" d="M266.72,39.79a1.25,1.25,0,0,1,.1-.51,1.51,1.51,0,0,1,.27-.42,1.34,1.34,0,0,1,.42-.28,1.26,1.26,0,0,1,1,0,1.29,1.29,0,0,1,.7.7,1.26,1.26,0,0,1,.11.51,1.24,1.24,0,0,1-.11.52,1.29,1.29,0,0,1-.7.7,1.38,1.38,0,0,1-1,0,1.34,1.34,0,0,1-.42-.28,1.51,1.51,0,0,1-.27-.42A1.24,1.24,0,0,1,266.72,39.79Z"/><path class="cls-7" d="M271.68,39.79a1.25,1.25,0,0,1,.1-.51,1.32,1.32,0,0,1,.27-.42,1.24,1.24,0,0,1,.42-.28,1.24,1.24,0,0,1,1,0,1.15,1.15,0,0,1,.42.28,1.37,1.37,0,0,1,.29.42,1.25,1.25,0,0,1,.1.51,1.24,1.24,0,0,1-.1.52,1.37,1.37,0,0,1-.29.42,1.15,1.15,0,0,1-.42.28,1.35,1.35,0,0,1-1,0,1.24,1.24,0,0,1-.42-.28,1.32,1.32,0,0,1-.27-.42A1.24,1.24,0,0,1,271.68,39.79Z"/><g class="cls-5"><path class="cls-7" d="M31.33,39.11a1.25,1.25,0,0,1,.1-.51,1.32,1.32,0,0,1,.27-.42,1.26,1.26,0,0,1,.93-.39,1.34,1.34,0,0,1,.52.1,1.37,1.37,0,0,1,.42.29,1.54,1.54,0,0,1,.28.42,1.25,1.25,0,0,1,.1.51,1.27,1.27,0,0,1-.1.52,1.54,1.54,0,0,1-.28.42,1.17,1.17,0,0,1-.42.27,1.34,1.34,0,0,1-.52.1,1.25,1.25,0,0,1-.51-.1,1.09,1.09,0,0,1-.42-.27,1.32,1.32,0,0,1-.27-.42A1.27,1.27,0,0,1,31.33,39.11Z"/><path class="cls-7" d="M36.28,39.11a1.45,1.45,0,0,1,.1-.51,1.34,1.34,0,0,1,.28-.42,1.22,1.22,0,0,1,.41-.29,1.27,1.27,0,0,1,.52-.1,1.25,1.25,0,0,1,.51.1,1.37,1.37,0,0,1,.42.29,1.34,1.34,0,0,1,.28.42,1.26,1.26,0,0,1,0,1,1.34,1.34,0,0,1-.28.42,1.17,1.17,0,0,1-.42.27,1.25,1.25,0,0,1-.51.1,1.27,1.27,0,0,1-.52-.1,1,1,0,0,1-.41-.27,1.34,1.34,0,0,1-.28-.42A1.46,1.46,0,0,1,36.28,39.11Z"/><path class="cls-7" d="M41.24,39.11a1.25,1.25,0,0,1,.1-.51,1.51,1.51,0,0,1,.27-.42,1.37,1.37,0,0,1,.42-.29,1.25,1.25,0,0,1,.51-.1,1.3,1.3,0,0,1,.52.1,1.37,1.37,0,0,1,.42.29,1.34,1.34,0,0,1,.28.42,1.25,1.25,0,0,1,.1.51,1.27,1.27,0,0,1-.1.52,1.34,1.34,0,0,1-.28.42,1.17,1.17,0,0,1-.42.27,1.3,1.3,0,0,1-.52.1,1.25,1.25,0,0,1-.51-.1,1.17,1.17,0,0,1-.42-.27,1.51,1.51,0,0,1-.27-.42A1.27,1.27,0,0,1,41.24,39.11Z"/></g><g class="cls-5"><polyline class="cls-9" points="537.58 247.37 537.58 253.69 531.26 253.69"/><line class="cls-10" x1="518.18" y1="253.69" x2="472.38" y2="253.69"/><polyline class="cls-9" points="465.84 253.69 459.52 253.69 459.52 247.37"/><line class="cls-11" x1="459.52" y1="234.74" x2="459.52" y2="38.93"/><polyline class="cls-9" points="459.52 32.62 459.52 26.3 465.84 26.3"/><line class="cls-10" x1="478.93" y1="26.3" x2="524.72" y2="26.3"/><polyline class="cls-9" points="531.26 26.3 537.58 26.3 537.58 32.62"/><line class="cls-11" x1="537.58" y1="45.25" x2="537.58" y2="241.05"/></g><g class="cls-5"><rect class="cls-6" x="472.45" y="66.8" width="46.44" height="66.65" rx="1.08"/><rect class="cls-7" x="477.42" y="80.54" width="38.27" height="4.04"/><rect class="cls-7" x="477.42" y="89.13" width="38.27" height="4.04"/><rect class="cls-7" x="477.75" y="97.72" width="38.27" height="4.04"/><rect class="cls-7" x="477.75" y="106.31" width="38.27" height="4.04"/><rect class="cls-7" x="477.75" y="114.9" width="38.27" height="4.04"/><circle class="cls-8" cx="512.03" cy="73.32" r="3.28"/><rect class="cls-7" x="477.75" y="123.5" width="38.27" height="4.04"/></g><g class="cls-5"><path d="M474.18,61.42v-.64L475,60c2-1.89,2.89-2.9,2.9-4.08a1.39,1.39,0,0,0-1.55-1.52,2.63,2.63,0,0,0-1.65.66l-.34-.74a3.41,3.41,0,0,1,2.21-.79A2.19,2.19,0,0,1,479,55.76c0,1.44-1,2.61-2.68,4.19l-.63.57v0h3.51v.87Z"/><path d="M483.6,61.42V59.3H480v-.69l3.48-5h1.14v4.84h1.09v.83h-1.09v2.12Zm0-3v-2.6c0-.41,0-.82,0-1.22h0c-.24.45-.43.79-.65,1.15L481,58.45v0Z"/><path d="M486.49,61.42v-.64l.83-.81c2-1.89,2.89-2.9,2.9-4.08a1.39,1.39,0,0,0-1.55-1.52A2.66,2.66,0,0,0,487,55l-.34-.74a3.41,3.41,0,0,1,2.21-.79,2.19,2.19,0,0,1,2.39,2.26c0,1.44-1,2.61-2.69,4.19l-.62.57v0h3.5v.87Z"/><path d="M492.73,60.8a.72.72,0,0,1,.72-.76.76.76,0,1,1-.72.76Z"/><path d="M495.13,61.42v-.64L496,60c2-1.89,2.89-2.9,2.9-4.08a1.39,1.39,0,0,0-1.55-1.52,2.63,2.63,0,0,0-1.65.66l-.34-.74a3.41,3.41,0,0,1,2.21-.79,2.19,2.19,0,0,1,2.39,2.26c0,1.44-1.05,2.61-2.69,4.19l-.63.57v0h3.51v.87Z"/><path d="M503.58,54.61h0l-1.35.73-.21-.8,1.71-.91h.9v7.79h-1Z"/><path d="M512.62,57.44c0,2.65-1,4.12-2.71,4.12-1.52,0-2.55-1.43-2.58-4s1.13-4,2.71-4S512.62,55,512.62,57.44Zm-4.23.12c0,2,.62,3.18,1.58,3.18s1.6-1.26,1.6-3.25-.49-3.18-1.59-3.18C509.06,54.31,508.39,55.44,508.39,57.56Z"/></g><g class="cls-5"><rect class="cls-6" x="475.33" y="163.92" width="46.44" height="66.65" rx="1.08"/><rect class="cls-7" x="480.3" y="177.66" width="38.27" height="4.04"/><rect class="cls-7" x="480.3" y="186.25" width="38.27" height="4.04"/><rect class="cls-7" x="480.64" y="194.84" width="38.27" height="4.04"/><rect class="cls-7" x="480.64" y="203.43" width="38.27" height="4.04"/><rect class="cls-7" x="480.64" y="212.02" width="38.27" height="4.04"/><circle class="cls-8" cx="514.92" cy="170.44" r="3.28"/><rect class="cls-7" x="480.64" y="220.62" width="38.27" height="4.04"/></g><g class="cls-5"><path d="M477.06,158.54v-.64l.83-.81c2-1.89,2.89-2.9,2.9-4.08a1.39,1.39,0,0,0-1.54-1.52,2.66,2.66,0,0,0-1.66.66l-.34-.74a3.41,3.41,0,0,1,2.21-.79,2.19,2.19,0,0,1,2.39,2.26c0,1.44-1.05,2.61-2.69,4.19l-.62.57v0H482v.87Z"/><path d="M486.48,158.54v-2.12h-3.62v-.69l3.48-5h1.14v4.84h1.09v.83h-1.09v2.12Zm0-2.95V153c0-.41,0-.82,0-1.22h0c-.24.45-.43.79-.65,1.15l-1.9,2.65v0Z"/><path d="M489.37,158.54v-.64l.83-.81c2-1.89,2.89-2.9,2.9-4.08a1.39,1.39,0,0,0-1.54-1.52,2.66,2.66,0,0,0-1.66.66l-.33-.74a3.38,3.38,0,0,1,2.2-.79,2.19,2.19,0,0,1,2.39,2.26c0,1.44-1,2.61-2.69,4.19l-.62.57v0h3.5v.87Z"/><path d="M495.61,157.92a.72.72,0,0,1,.72-.76.71.71,0,0,1,.71.76.7.7,0,0,1-.72.75A.7.7,0,0,1,495.61,157.92Z"/><path d="M498,158.54v-.64l.83-.81c2-1.89,2.89-2.9,2.9-4.08a1.39,1.39,0,0,0-1.54-1.52,2.66,2.66,0,0,0-1.66.66l-.33-.74a3.38,3.38,0,0,1,2.2-.79,2.19,2.19,0,0,1,2.39,2.26c0,1.44-1,2.61-2.69,4.19l-.62.57v0H503v.87Z"/><path d="M506.46,151.73h0l-1.36.73-.2-.8,1.7-.91h.9v7.79h-1Z"/><path d="M515,151.64h-3l-.3,2a3.52,3.52,0,0,1,.64,0A3.28,3.28,0,0,1,514,154a2.22,2.22,0,0,1,1.11,2,2.7,2.7,0,0,1-2.9,2.66,3.81,3.81,0,0,1-1.94-.47l.26-.81a3.54,3.54,0,0,0,1.67.43,1.72,1.72,0,0,0,1.85-1.69c0-1-.69-1.72-2.25-1.72a7.33,7.33,0,0,0-1.07.08l.5-3.74H515Z"/></g><g class="cls-5"><path class="cls-7" d="M491.89,243a1.26,1.26,0,0,1,.11-.51,1.17,1.17,0,0,1,.27-.42,1.22,1.22,0,0,1,.41-.29,1.27,1.27,0,0,1,.52-.1,1.25,1.25,0,0,1,.51.1,1.42,1.42,0,0,1,.71.71,1.25,1.25,0,0,1,.1.51,1.27,1.27,0,0,1-.1.52,1.37,1.37,0,0,1-.29.42,1.32,1.32,0,0,1-.42.27,1.25,1.25,0,0,1-.51.1,1.27,1.27,0,0,1-.52-.1,1.2,1.2,0,0,1-.68-.69A1.27,1.27,0,0,1,491.89,243Z"/><path class="cls-7" d="M496.85,243a1.25,1.25,0,0,1,.1-.51,1.51,1.51,0,0,1,.27-.42,1.37,1.37,0,0,1,.42-.29,1.25,1.25,0,0,1,.51-.1,1.27,1.27,0,0,1,.52.1,1.37,1.37,0,0,1,.42.29,1.34,1.34,0,0,1,.28.42,1.26,1.26,0,0,1,0,1,1.34,1.34,0,0,1-.28.42,1.32,1.32,0,0,1-.42.27,1.27,1.27,0,0,1-.52.1,1.25,1.25,0,0,1-.51-.1,1.32,1.32,0,0,1-.42-.27,1.51,1.51,0,0,1-.27-.42A1.27,1.27,0,0,1,496.85,243Z"/><path class="cls-7" d="M501.81,243a1.25,1.25,0,0,1,.1-.51,1.17,1.17,0,0,1,.27-.42,1.29,1.29,0,0,1,1.86,0,1.37,1.37,0,0,1,.29.42,1.25,1.25,0,0,1,.1.51,1.27,1.27,0,0,1-.1.52,1.37,1.37,0,0,1-.29.42,1.22,1.22,0,0,1-.42.27,1.35,1.35,0,0,1-1,0,1.22,1.22,0,0,1-.42-.27,1.17,1.17,0,0,1-.27-.42A1.27,1.27,0,0,1,501.81,243Z"/></g><g class="cls-5"><path class="cls-7" d="M490.28,39.11a1.45,1.45,0,0,1,.1-.51,1.34,1.34,0,0,1,.28-.42,1.22,1.22,0,0,1,.41-.29,1.27,1.27,0,0,1,.52-.1,1.25,1.25,0,0,1,.51.1,1.37,1.37,0,0,1,.42.29,1.34,1.34,0,0,1,.28.42,1.26,1.26,0,0,1,0,1,1.34,1.34,0,0,1-.28.42,1.17,1.17,0,0,1-.42.27,1.25,1.25,0,0,1-.51.1,1.27,1.27,0,0,1-.52-.1,1,1,0,0,1-.41-.27,1.34,1.34,0,0,1-.28-.42A1.46,1.46,0,0,1,490.28,39.11Z"/><path class="cls-7" d="M495.24,39.11a1.25,1.25,0,0,1,.1-.51,1.51,1.51,0,0,1,.27-.42,1.37,1.37,0,0,1,.42-.29,1.25,1.25,0,0,1,.51-.1,1.3,1.3,0,0,1,.52.1,1.37,1.37,0,0,1,.42.29,1.54,1.54,0,0,1,.28.42,1.25,1.25,0,0,1,.1.51,1.27,1.27,0,0,1-.1.52,1.54,1.54,0,0,1-.28.42,1.17,1.17,0,0,1-.42.27,1.3,1.3,0,0,1-.52.1,1.25,1.25,0,0,1-.51-.1,1.17,1.17,0,0,1-.42-.27,1.51,1.51,0,0,1-.27-.42A1.27,1.27,0,0,1,495.24,39.11Z"/><path class="cls-7" d="M500.2,39.11a1.25,1.25,0,0,1,.1-.51,1.17,1.17,0,0,1,.27-.42,1.22,1.22,0,0,1,.41-.29,1.3,1.3,0,0,1,.52-.1,1.25,1.25,0,0,1,.51.1,1.42,1.42,0,0,1,.71.71,1.25,1.25,0,0,1,.1.51,1.27,1.27,0,0,1-.1.52,1.37,1.37,0,0,1-.29.42,1.17,1.17,0,0,1-.42.27,1.25,1.25,0,0,1-.51.1,1.3,1.3,0,0,1-.52-.1,1,1,0,0,1-.41-.27,1.17,1.17,0,0,1-.27-.42A1.27,1.27,0,0,1,500.2,39.11Z"/></g></svg>