<svg id="Layer_1" data-name="Layer 1" xmlns="http://www.w3.org/2000/svg" viewBox="0 0 118.57 44.48"><defs><style>.cls-1{fill:#e6ecef;}.cls-2{fill:#789ba8;}.cls-3{fill:#fff;}.cls-4{font-size:5px;font-family:Monaco, Monaco;}.cls-5{fill:none;}.cls-6{fill:#333;}</style></defs><title>HTTP type URL</title><rect class="cls-1" y="7.46" width="118.57" height="37.01" rx="2.17" ry="2.17"/><path class="cls-2" d="M0,11.52V5.4A5.49,5.49,0,0,1,5.57,0H112.93a5.49,5.49,0,0,1,5.57,5.4v6.12"/><rect class="cls-3" x="12.21" y="2.04" width="102.24" height="8.46" rx="1.97" ry="1.97"/><text class="cls-4" transform="translate(13.47 8.24)">http://www.example.com/index.html</text><rect class="cls-3" x="2.36" y="13.44" width="113.61" height="28.99" rx="2.14" ry="2.14"/><path class="cls-5" d="M1.48,2H11v9.47H1.48Z"/><path class="cls-6" d="M8.44,4a3.16,3.16,0,1,0,.88,2.75h-.8A2.36,2.36,0,1,1,6.22,3.9a2.32,2.32,0,0,1,1.66.7L6.74,5.74H9.37V3.11Z"/></svg>